Mertz Light-regular.ufo
<glyph name="exclam" format="1">
  <advance width="472"/>
  <unicode hex="0021"/>
  <outline>
    <contour>
      <point x="204" y="351" type="line"/>
      <point x="259" y="351" type="line"/>
      <point x="319" y="1241" type="line"/>
      <point x="143" y="1241" type="line"/>
    </contour>
    <component base="period" xOffset="-21"/>
  </outline>
</glyph>
<glyph name="quotedbl" format="1">
  <advance width="655"/>
  <unicode hex="0022"/>
  <outline>
    <contour>
      <point x="423" y="788" type="line"/>
      <point x="476" y="788" type="line"/>
      <point x="535" y="1319" type="line"/>
      <point x="364" y="1319" type="line"/>
    </contour>
    <contour>
      <point x="181" y="788" type="line"/>
      <point x="234" y="788" type="line"/>
      <point x="293" y="1319" type="line"/>
      <point x="122" y="1319" type="line"/>
    </contour>
  </outline>
</glyph>
<glyph name="numbersign" format="1">
  <advance width="1145"/>
  <unicode hex="0023"/>
  <outline>
    <contour>
      <point x="133" y="0" type="line"/>
      <point x="264" y="0" type="line"/>
      <point x="609" y="1241" type="line"/>
      <point x="476" y="1241" type="line"/>
    </contour>
    <contour>
      <point x="103" y="412" type="line"/>
      <point x="998" y="412" type="line"/>
      <point x="998" y="514" type="line"/>
      <point x="103" y="514" type="line"/>
    </contour>
    <contour>
      <point x="153" y="723" type="line"/>
      <point x="1048" y="723" type="line"/>
      <point x="1048" y="824" type="line"/>
      <point x="153" y="824" type="line"/>
    </contour>
    <contour>
      <point x="534" y="0" type="line"/>
      <point x="665" y="0" type="line"/>
      <point x="1009" y="1241" type="line"/>
      <point x="876" y="1241" type="line"/>
    </contour>
  </outline>
</glyph>
<glyph name="dollar" format="1">
  <advance width="956"/>
  <unicode hex="0024"/>
  <outline>
    <contour>
      <point x="308" y="-191" type="line"/>
      <point x="393" y="-191" type="line"/>
      <point x="678" y="1398" type="line"/>
      <point x="592" y="1398" type="line"/>
    </contour>
    <contour>
      <point x="521" y="-34" type="curve" smooth="yes"/>
      <point x="711" y="-34"/>
      <point x="890" y="68"/>
      <point x="890" y="291" type="curve" smooth="yes"/>
      <point x="890" y="411"/>
      <point x="836" y="513"/>
      <point x="654" y="624" type="curve" smooth="yes"/>
      <point x="396" y="781" type="line" smooth="yes"/>
      <point x="313" y="832"/>
      <point x="262" y="894"/>
      <point x="262" y="964" type="curve" smooth="yes"/>
      <point x="262" y="1053"/>
      <point x="332" y="1135"/>
      <point x="499" y="1135" type="curve" smooth="yes"/>
      <point x="608" y="1135"/>
      <point x="759" y="1090"/>
      <point x="828" y="1054" type="curve"/>
      <point x="828" y="1200" type="line" smooth="yes"/>
      <point x="786" y="1222"/>
      <point x="652" y="1275"/>
      <point x="486" y="1275" type="curve" smooth="yes"/>
      <point x="233" y="1275"/>
      <point x="94" y="1129"/>
      <point x="94" y="957" type="curve" smooth="yes"/>
      <point x="94" y="844"/>
      <point x="169" y="743"/>
      <point x="294" y="666" type="curve" smooth="yes"/>
      <point x="571" y="496" type="line" smooth="yes"/>
      <point x="680" y="429"/>
      <point x="723" y="356"/>
      <point x="723" y="285" type="curve" smooth="yes"/>
      <point x="723" y="182"/>
      <point x="652" y="105"/>
      <point x="507" y="105" type="curve" smooth="yes"/>
      <point x="357" y="105"/>
      <point x="196" y="167"/>
      <point x="125" y="215" type="curve"/>
      <point x="125" y="69" type="line"/>
      <point x="165" y="45"/>
      <point x="306" y="-34"/>
    </contour>
  </outline>
</glyph>
<glyph name="percent" format="1">
  <advance width="1444"/>
  <unicode hex="0025"/>
  <outline>
    <contour>
      <point x="298" y="0" type="line"/>
      <point x="426" y="0" type="line"/>
      <point x="1146" y="1241" type="line"/>
      <point x="1016" y="1241" type="line"/>
    </contour>
    <component base="o" xOffset="12" yOffset="727" xScale="0.60" yScale="0.60"/>
    <component base="o" xOffset="767" yOffset="12" xScale="0.60" yScale="0.60"/>
  </outline>
</glyph>
<glyph name="ampersand" format="1">
  <advance width="1274"/>
  <unicode hex="0026"/>
  <outline>
    <contour>
      <point x="542" y="-33" type="curve" smooth="yes"/>
      <point x="852" y="-33"/>
      <point x="1116" y="220"/>
      <point x="1196" y="415" type="curve"/>
      <point x="1085" y="486" type="line"/>
      <point x="987" y="287"/>
      <point x="771" y="105"/>
      <point x="546" y="105" type="curve" smooth="yes"/>
      <point x="346" y="105"/>
      <point x="268" y="232"/>
      <point x="268" y="331" type="curve" smooth="yes"/>
      <point x="268" y="456"/>
      <point x="327" y="562"/>
      <point x="532" y="656" type="curve" smooth="yes"/>
      <point x="746" y="756"/>
      <point x="835" y="892"/>
      <point x="832" y="1029" type="curve" smooth="yes"/>
      <point x="829" y="1158"/>
      <point x="729" y="1271"/>
      <point x="499" y="1271" type="curve" smooth="yes"/>
      <point x="365" y="1271"/>
      <point x="180" y="1200"/>
      <point x="180" y="1020" type="curve" smooth="yes"/>
      <point x="180" y="940"/>
      <point x="219" y="845"/>
      <point x="343" y="718" type="curve" smooth="yes"/>
      <point x="1071" y="-34" type="line"/>
      <point x="1170" y="54" type="line"/>
      <point x="432" y="814" type="line"/>
      <point x="352" y="898"/>
      <point x="323" y="967"/>
      <point x="323" y="1016" type="curve" smooth="yes"/>
      <point x="323" y="1129"/>
      <point x="430" y="1157"/>
      <point x="521" y="1157" type="curve" smooth="yes"/>
      <point x="635" y="1157"/>
      <point x="695" y="1096"/>
      <point x="695" y="1019" type="curve" smooth="yes"/>
      <point x="695" y="937"/>
      <point x="638" y="844"/>
      <point x="482" y="774" type="curve" smooth="yes"/>
      <point x="219" y="656"/>
      <point x="114" y="509"/>
      <point x="114" y="316" type="curve" smooth="yes"/>
      <point x="114" y="151"/>
      <point x="263" y="-33"/>
    </contour>
  </outline>
</glyph>
<glyph name="parenleft" format="1">
  <advance width="487"/>
  <unicode hex="0028"/>
  <outline>
    <contour>
      <point x="214" y="-47" type="line"/>
      <point x="120" y="153"/>
      <point x="73" y="392"/>
      <point x="73" y="650" type="curve" smooth="yes"/>
      <point x="73" y="907"/>
      <point x="119" y="1146"/>
      <point x="213" y="1346" type="curve"/>
      <point x="385" y="1346" type="line"/>
      <point x="291" y="1135"/>
      <point x="249" y="887"/>
      <point x="249" y="650" type="curve" smooth="yes"/>
      <point x="249" y="412"/>
      <point x="292" y="165"/>
      <point x="385" y="-47" type="curve"/>
    </contour>
  </outline>
</glyph>
<glyph name="parenright" format="1">
  <advance width="487"/>
  <unicode hex="0029"/>
  <outline>
    <contour>
      <point x="63" y="-47" type="line"/>
      <point x="156" y="164"/>
      <point x="199" y="412"/>
      <point x="199" y="649" type="curve" smooth="yes"/>
      <point x="199" y="887"/>
      <point x="156" y="1135"/>
      <point x="62" y="1346" type="curve"/>
      <point x="234" y="1346" type="line"/>
      <point x="328" y="1146"/>
      <point x="375" y="907"/>
      <point x="375" y="649" type="curve" smooth="yes"/>
      <point x="375" y="392"/>
      <point x="328" y="153"/>
      <point x="235" y="-47" type="curve"/>
    </contour>
  </outline>
</glyph>
<glyph name="asterisk" format="1">
  <advance width="1103"/>
  <unicode hex="002A"/>
  <outline>
    <contour>
      <point x="307" y="477" type="line"/>
      <point x="521" y="771" type="line"/>
      <point x="734" y="477" type="line"/>
      <point x="830" y="563" type="line"/>
      <point x="591" y="824" type="line"/>
      <point x="914" y="938" type="line"/>
      <point x="867" y="1053" type="line"/>
      <point x="562" y="904" type="line"/>
      <point x="591" y="1249" type="line"/>
      <point x="450" y="1249" type="line"/>
      <point x="479" y="904" type="line"/>
      <point x="175" y="1053" type="line"/>
      <point x="127" y="938" type="line"/>
      <point x="451" y="824" type="line"/>
      <point x="212" y="563" type="line"/>
    </contour>
  </outline>
</glyph>
<glyph name="plus" format="1">
  <advance width="882"/>
  <unicode hex="002B"/>
  <outline>
    <contour>
      <point x="388" y="305" type="line"/>
      <point x="508" y="305" type="line"/>
      <point x="508" y="534" type="line"/>
      <point x="737" y="534" type="line"/>
      <point x="737" y="654" type="line"/>
      <point x="508" y="654" type="line"/>
      <point x="508" y="884" type="line"/>
      <point x="388" y="884" type="line"/>
      <point x="388" y="654" type="line"/>
      <point x="159" y="654" type="line"/>
      <point x="159" y="534" type="line"/>
      <point x="388" y="534" type="line"/>
    </contour>
  </outline>
</glyph>
<glyph name="comma" format="1">
  <advance width="483"/>
  <unicode hex="002C"/>
  <outline>
    <contour>
      <point x="121" y="-165" type="curve"/>
      <point x="189" y="-165" type="line"/>
      <point x="313" y="-60"/>
      <point x="361" y="25"/>
      <point x="361" y="92" type="curve" smooth="yes"/>
      <point x="361" y="144"/>
      <point x="322" y="201"/>
      <point x="251" y="201" type="curve" smooth="yes"/>
      <point x="180" y="201"/>
      <point x="141" y="145"/>
      <point x="141" y="92" type="curve" smooth="yes"/>
      <point x="141" y="48"/>
      <point x="168" y="3"/>
      <point x="217" y="-11" type="curve"/>
      <point x="202" y="-64"/>
      <point x="161" y="-113"/>
    </contour>
  </outline>
</glyph>
<glyph name="hyphen" format="1">
  <advance width="890"/>
  <unicode hex="002D"/>
  <outline>
    <contour>
      <point x="162" y="528" type="line"/>
      <point x="741" y="528" type="line"/>
      <point x="741" y="662" type="line"/>
      <point x="162" y="662" type="line"/>
    </contour>
  </outline>
</glyph>
<glyph name="period" format="1">
  <advance width="493"/>
  <unicode hex="002E"/>
  <outline>
    <contour>
      <point x="248" y="-16" type="curve" smooth="yes"/>
      <point x="318" y="-16"/>
      <point x="357" y="38"/>
      <point x="357" y="92" type="curve" smooth="yes"/>
      <point x="357" y="144"/>
      <point x="318" y="201"/>
      <point x="248" y="201" type="curve" smooth="yes"/>
      <point x="176" y="201"/>
      <point x="137" y="145"/>
      <point x="137" y="92" type="curve" smooth="yes"/>
      <point x="137" y="38"/>
      <point x="176" y="-16"/>
    </contour>
  </outline>
</glyph>
<glyph name="zero" format="1">
  <advance width="1239"/>
  <unicode hex="0030"/>
  <outline>
    <contour>
      <point x="620" y="113" type="curve" smooth="yes"/>
      <point x="399" y="113"/>
      <point x="261" y="242"/>
      <point x="261" y="622" type="curve" smooth="yes"/>
      <point x="261" y="996"/>
      <point x="399" y="1127"/>
      <point x="620" y="1127" type="curve" smooth="yes"/>
      <point x="841" y="1127"/>
      <point x="978" y="996"/>
      <point x="978" y="622" type="curve" smooth="yes"/>
      <point x="978" y="242"/>
      <point x="841" y="113"/>
    </contour>
    <contour>
      <point x="620" y="-34" type="curve" smooth="yes"/>
      <point x="960" y="-34"/>
      <point x="1151" y="186"/>
      <point x="1151" y="620" type="curve" smooth="yes"/>
      <point x="1151" y="1076"/>
      <point x="961" y="1275"/>
      <point x="620" y="1275" type="curve" smooth="yes"/>
      <point x="279" y="1275"/>
      <point x="88" y="1076"/>
      <point x="88" y="620" type="curve" smooth="yes"/>
      <point x="88" y="186"/>
      <point x="280" y="-34"/>
    </contour>
  </outline>
</glyph>
<glyph name="one" format="1">
  <advance width="631"/>
  <unicode hex="0031"/>
  <outline>
    <contour>
      <point x="300" y="0" type="line"/>
      <point x="476" y="0" type="line"/>
      <point x="476" y="1267" type="line"/>
      <point x="476" y="1267"/>
      <point x="220" y="1106"/>
      <point x="51" y="1040" type="curve"/>
      <point x="51" y="892" type="line"/>
      <point x="137" y="918"/>
      <point x="223" y="953"/>
      <point x="300" y="1000" type="curve"/>
    </contour>
  </outline>
</glyph>
<glyph name="two" format="1">
  <advance width="957"/>
  <unicode hex="0032"/>
  <outline>
    <contour>
      <point x="70" y="0" type="line"/>
      <point x="845" y="0" type="line"/>
      <point x="845" y="145" type="line"/>
      <point x="373" y="145" type="line"/>
      <point x="645" y="497" type="line" smooth="yes"/>
      <point x="758" y="645"/>
      <point x="838" y="765"/>
      <point x="838" y="914" type="curve" smooth="yes"/>
      <point x="838" y="1129"/>
      <point x="692" y="1275"/>
      <point x="476" y="1275" type="curve" smooth="yes"/>
      <point x="325" y="1275"/>
      <point x="169" y="1194"/>
      <point x="124" y="1154" type="curve"/>
      <point x="186" y="1022" type="line"/>
      <point x="222" y="1054"/>
      <point x="350" y="1127"/>
      <point x="464" y="1127" type="curve" smooth="yes"/>
      <point x="575" y="1127"/>
      <point x="667" y="1059"/>
      <point x="667" y="925" type="curve" smooth="yes"/>
      <point x="667" y="807"/>
      <point x="604" y="717"/>
      <point x="523" y="609" type="curve"/>
    </contour>
  </outline>
</glyph>
<glyph name="three" format="1">
  <advance width="930"/>
  <unicode hex="0033"/>
  <outline>
    <contour>
      <point x="435" y="-34" type="curve" smooth="yes"/>
      <point x="687" y="-34"/>
      <point x="833" y="109"/>
      <point x="833" y="306" type="curve" smooth="yes"/>
      <point x="833" y="487"/>
      <point x="707" y="607"/>
      <point x="557" y="661" type="curve"/>
      <point x="683" y="705"/>
      <point x="804" y="802"/>
      <point x="804" y="953" type="curve" smooth="yes"/>
      <point x="804" y="1168"/>
      <point x="634" y="1275"/>
      <point x="442" y="1275" type="curve" smooth="yes"/>
      <point x="329" y="1275"/>
      <point x="193" y="1241"/>
      <point x="110" y="1186" type="curve"/>
      <point x="158" y="1059" type="line"/>
      <point x="237" y="1106"/>
      <point x="339" y="1134"/>
      <point x="421" y="1134" type="curve" smooth="yes"/>
      <point x="541" y="1134"/>
      <point x="643" y="1073"/>
      <point x="643" y="946" type="curve" smooth="yes"/>
      <point x="643" y="811"/>
      <point x="489" y="730"/>
      <point x="296" y="682" type="curve"/>
      <point x="296" y="623" type="line"/>
      <point x="563" y="555"/>
      <point x="664" y="461"/>
      <point x="664" y="315" type="curve" smooth="yes"/>
      <point x="664" y="188"/>
      <point x="561" y="108"/>
      <point x="429" y="108" type="curve" smooth="yes"/>
      <point x="343" y="108"/>
      <point x="244" y="132"/>
      <point x="151" y="179" type="curve"/>
      <point x="114" y="48" type="line"/>
      <point x="175" y="11"/>
      <point x="311" y="-34"/>
    </contour>
  </outline>
</glyph>
<glyph name="four" format="1">
  <advance width="1110"/>
  <unicode hex="0034"/>
  <outline>
    <contour>
      <point x="658" y="0" type="line"/>
      <point x="834" y="0" type="line"/>
      <point x="834" y="251" type="line"/>
      <point x="1024" y="251" type="line"/>
      <point x="1024" y="387" type="line"/>
      <point x="834" y="387" type="line"/>
      <point x="834" y="1259" type="line"/>
      <point x="61" y="251" type="line"/>
      <point x="658" y="251" type="line"/>
    </contour>
    <contour>
      <point x="330" y="387" type="line"/>
      <point x="658" y="848" type="line"/>
      <point x="658" y="387" type="line"/>
    </contour>
  </outline>
</glyph>
<glyph name="five" format="1">
  <advance width="987"/>
  <unicode hex="0035"/>
  <outline>
    <contour>
      <point x="478" y="-35" type="curve" smooth="yes"/>
      <point x="750" y="-35"/>
      <point x="899" y="124"/>
      <point x="899" y="356" type="curve" smooth="yes"/>
      <point x="899" y="604"/>
      <point x="718" y="750"/>
      <point x="518" y="750" type="curve" smooth="yes"/>
      <point x="461" y="750"/>
      <point x="385" y="739"/>
      <point x="329" y="706" type="curve"/>
      <point x="332" y="821"/>
      <point x="342" y="978"/>
      <point x="346" y="1092" type="curve"/>
      <point x="794" y="1092" type="line"/>
      <point x="808" y="1241" type="line"/>
      <point x="208" y="1241" type="line"/>
      <point x="181" y="570" type="line"/>
      <point x="308" y="542" type="line"/>
      <point x="351" y="594"/>
      <point x="425" y="612"/>
      <point x="493" y="612" type="curve" smooth="yes"/>
      <point x="635" y="612"/>
      <point x="731" y="493"/>
      <point x="731" y="361" type="curve" smooth="yes"/>
      <point x="731" y="214"/>
      <point x="634" y="114"/>
      <point x="473" y="114" type="curve" smooth="yes"/>
      <point x="335" y="114"/>
      <point x="218" y="178"/>
      <point x="165" y="219" type="curve"/>
      <point x="125" y="81" type="line"/>
      <point x="188" y="23"/>
      <point x="334" y="-35"/>
    </contour>
  </outline>
</glyph>
<glyph name="seven" format="1">
  <advance width="992"/>
  <unicode hex="0037"/>
  <outline>
    <contour>
      <point x="269" y="0" type="line"/>
      <point x="448" y="0" type="line"/>
      <point x="843" y="1110" type="line"/>
      <point x="843" y="1241" type="line"/>
      <point x="172" y="1241" type="line"/>
      <point x="172" y="1092" type="line"/>
      <point x="652" y="1092" type="line"/>
    </contour>
  </outline>
</glyph>
<glyph name="eight" format="1">
  <advance width="1150"/>
  <unicode hex="0038"/>
  <outline>
    <contour>
      <point x="586" y="-34" type="curve" smooth="yes"/>
      <point x="803" y="-34"/>
      <point x="980" y="85"/>
      <point x="980" y="303" type="curve" smooth="yes"/>
      <point x="980" y="439"/>
      <point x="908" y="569"/>
      <point x="713" y="659" type="curve"/>
      <point x="895" y="737"/>
      <point x="954" y="847"/>
      <point x="954" y="966" type="curve" smooth="yes"/>
      <point x="954" y="1139"/>
      <point x="813" y="1276"/>
      <point x="580" y="1276" type="curve" smooth="yes"/>
      <point x="356" y="1276"/>
      <point x="217" y="1129"/>
      <point x="217" y="962" type="curve" smooth="yes"/>
      <point x="217" y="842"/>
      <point x="308" y="726"/>
      <point x="442" y="654" type="curve"/>
      <point x="290" y="566"/>
      <point x="194" y="431"/>
      <point x="194" y="287" type="curve" smooth="yes"/>
      <point x="194" y="77"/>
      <point x="391" y="-34"/>
    </contour>
    <contour>
      <point x="561" y="712" type="curve"/>
      <point x="432" y="760"/>
      <point x="368" y="856"/>
      <point x="368" y="962" type="curve" smooth="yes"/>
      <point x="368" y="1072"/>
      <point x="459" y="1145"/>
      <point x="580" y="1145" type="curve" smooth="yes"/>
      <point x="702" y="1145"/>
      <point x="804" y="1071"/>
      <point x="804" y="961" type="curve" smooth="yes"/>
      <point x="804" y="860"/>
      <point x="742" y="781"/>
    </contour>
    <contour>
      <point x="580" y="98" type="curve" smooth="yes"/>
      <point x="460" y="98"/>
      <point x="356" y="171"/>
      <point x="356" y="306" type="curve" smooth="yes"/>
      <point x="356" y="436"/>
      <point x="432" y="544"/>
      <point x="577" y="598" type="curve"/>
      <point x="734" y="543"/>
      <point x="826" y="434"/>
      <point x="826" y="313" type="curve" smooth="yes"/>
      <point x="826" y="170"/>
      <point x="711" y="98"/>
    </contour>
  </outline>
</glyph>
<glyph name="nine" format="1">
  <advance width="1112"/>
  <unicode hex="0039"/>
  <outline>
    <contour>
      <point x="291" y="0" type="line"/>
      <point x="486" y="0" type="line"/>
      <point x="486" y="0"/>
      <point x="735" y="316"/>
      <point x="809" y="424" type="curve" smooth="yes"/>
      <point x="927" y="594"/>
      <point x="978" y="705"/>
      <point x="978" y="869" type="curve" smooth="yes"/>
      <point x="978" y="1095"/>
      <point x="818" y="1275"/>
      <point x="569" y="1275" type="curve" smooth="yes"/>
      <point x="334" y="1275"/>
      <point x="154" y="1109"/>
      <point x="154" y="876" type="curve" smooth="yes"/>
      <point x="154" y="644"/>
      <point x="341" y="497"/>
      <point x="537" y="497" type="curve" smooth="yes"/>
      <point x="586" y="497"/>
      <point x="655" y="511"/>
      <point x="696" y="538" type="curve"/>
    </contour>
    <contour>
      <point x="569" y="629" type="curve" smooth="yes"/>
      <point x="416" y="629"/>
      <point x="318" y="732"/>
      <point x="318" y="877" type="curve" smooth="yes"/>
      <point x="318" y="1016"/>
      <point x="419" y="1134"/>
      <point x="576" y="1134" type="curve" smooth="yes"/>
      <point x="734" y="1134"/>
      <point x="815" y="1020"/>
      <point x="815" y="883" type="curve" smooth="yes"/>
      <point x="815" y="746"/>
      <point x="738" y="629"/>
    </contour>
  </outline>
</glyph>
<glyph name="less" format="1">
  <advance width="1000"/>
  <unicode hex="003C"/>
  <outline>
    <contour>
      <point x="927" y="-28" type="line"/>
      <point x="927" y="147" type="line"/>
      <point x="365" y="399" type="line"/>
      <point x="927" y="659" type="line"/>
      <point x="927" y="836" type="line"/>
      <point x="59" y="399" type="line"/>
    </contour>
  </outline>
</glyph>
<glyph name="equal" format="1">
  <advance width="1007"/>
  <unicode hex="003D"/>
  <outline>
    <contour>
      <point x="170" y="379" type="line"/>
      <point x="824" y="379" type="line"/>
      <point x="824" y="491" type="line"/>
      <point x="170" y="491" type="line"/>
    </contour>
    <contour>
      <point x="170" y="648" type="line"/>
      <point x="824" y="648" type="line"/>
      <point x="824" y="760" type="line"/>
      <point x="170" y="760" type="line"/>
    </contour>
  </outline>
</glyph>
<glyph name="greater" format="1">
  <advance width="1000"/>
  <unicode hex="003E"/>
  <outline>
    <contour>
      <point x="72" y="-28" type="line"/>
      <point x="941" y="408" type="line"/>
      <point x="72" y="836" type="line"/>
      <point x="72" y="660" type="line"/>
      <point x="635" y="409" type="line"/>
      <point x="72" y="148" type="line"/>
    </contour>
  </outline>
</glyph>
<glyph name="question" format="1">
  <advance width="920"/>
  <unicode hex="003F"/>
  <outline>
    <contour>
      <point x="253" y="365" type="curve"/>
      <point x="391" y="365" type="line"/>
      <point x="678" y="639"/>
      <point x="817" y="771"/>
      <point x="817" y="948" type="curve" smooth="yes"/>
      <point x="817" y="1157"/>
      <point x="660" y="1275"/>
      <point x="454" y="1275" type="curve" smooth="yes"/>
      <point x="302" y="1275"/>
      <point x="150" y="1197"/>
      <point x="105" y="1157" type="curve"/>
      <point x="169" y="1032" type="line"/>
      <point x="224" y="1073"/>
      <point x="334" y="1127"/>
      <point x="439" y="1127" type="curve" smooth="yes"/>
      <point x="545" y="1127"/>
      <point x="642" y="1067"/>
      <point x="642" y="938" type="curve" smooth="yes"/>
      <point x="642" y="809"/>
      <point x="570" y="720"/>
    </contour>
    <component base="period" xOffset="43"/>
  </outline>
</glyph>
<glyph name="at" format="1">
  <advance width="1417"/>
  <unicode hex="0040"/>
  <outline>
    <contour>
      <point x="710" y="-101" type="curve" smooth="yes"/>
      <point x="935" y="-101"/>
      <point x="1122" y="-14"/>
      <point x="1213" y="40" type="curve"/>
      <point x="1183" y="141" type="line"/>
      <point x="1094" y="88"/>
      <point x="919" y="11"/>
      <point x="724" y="11" type="curve" smooth="yes"/>
      <point x="407" y="11"/>
      <point x="177" y="189"/>
      <point x="177" y="523" type="curve" smooth="yes"/>
      <point x="177" y="781"/>
      <point x="322" y="1070"/>
      <point x="757" y="1070" type="curve" smooth="yes"/>
      <point x="1003" y="1070"/>
      <point x="1207" y="920"/>
      <point x="1207" y="609" type="curve" smooth="yes"/>
      <point x="1207" y="394"/>
      <point x="1124" y="296"/>
      <point x="1034" y="296" type="curve" smooth="yes"/>
      <point x="954" y="296"/>
      <point x="950" y="383"/>
      <point x="950" y="475" type="curve" smooth="yes"/>
      <point x="950" y="905" type="line"/>
      <point x="908" y="909"/>
      <point x="865" y="911"/>
      <point x="830" y="911" type="curve" smooth="yes"/>
      <point x="376" y="911"/>
      <point x="353" y="590"/>
      <point x="359" y="483" type="curve" smooth="yes"/>
      <point x="367" y="340"/>
      <point x="463" y="203"/>
      <point x="616" y="203" type="curve" smooth="yes"/>
      <point x="679" y="203"/>
      <point x="771" y="231"/>
      <point x="833" y="354" type="curve"/>
      <point x="860" y="238"/>
      <point x="938" y="201"/>
      <point x="1023" y="201" type="curve" smooth="yes"/>
      <point x="1172" y="201"/>
      <point x="1336" y="341"/>
      <point x="1336" y="615" type="curve" smooth="yes"/>
      <point x="1336" y="909"/>
      <point x="1149" y="1184"/>
      <point x="752" y="1184" type="curve" smooth="yes"/>
      <point x="235" y="1184"/>
      <point x="46" y="831"/>
      <point x="46" y="523" type="curve" smooth="yes"/>
      <point x="46" y="121"/>
      <point x="355" y="-101"/>
    </contour>
    <contour>
      <point x="632" y="307" type="curve" smooth="yes"/>
      <point x="551" y="305"/>
      <point x="497" y="374"/>
      <point x="489" y="471" type="curve" smooth="yes"/>
      <point x="479" y="597"/>
      <point x="509" y="811"/>
      <point x="813" y="811" type="curve"/>
      <point x="813" y="428" type="line"/>
      <point x="778" y="370"/>
      <point x="712" y="309"/>
    </contour>
  </outline>
</glyph>
<glyph name="A" format="1">
  <advance width="1284"/>
  <unicode hex="0041"/>
  <outline>
    <contour>
      <point x="105" y="0" type="line"/>
      <point x="286" y="0" type="line"/>
      <point x="416" y="297" type="line"/>
      <point x="928" y="297" type="line"/>
      <point x="1064" y="0" type="line"/>
      <point x="1241" y="0" type="line"/>
      <point x="672" y="1273" type="line"/>
    </contour>
    <contour>
      <point x="459" y="414" type="line"/>
      <point x="672" y="937" type="line"/>
      <point x="894" y="414" type="line"/>
    </contour>
    <contour>
      <point x="642" y="1241" type="move" name="top"/>
    </contour>
    <contour>
      <point x="1156" y="10" type="move" name="ogonek"/>
    </contour>
  </outline>
</glyph>
<glyph name="B" format="1">
  <advance width="1089"/>
  <unicode hex="0042"/>
  <outline>
    <contour>
      <point x="155" y="0" type="line"/>
      <point x="517" y="0" type="line" smooth="yes"/>
      <point x="832" y="0"/>
      <point x="1006" y="112"/>
      <point x="1006" y="361" type="curve" smooth="yes"/>
      <point x="1006" y="540"/>
      <point x="860" y="648"/>
      <point x="730" y="683" type="curve"/>
      <point x="868" y="718"/>
      <point x="931" y="832"/>
      <point x="931" y="933" type="curve" smooth="yes"/>
      <point x="931" y="1133"/>
      <point x="798" y="1241"/>
      <point x="481" y="1241" type="curve" smooth="yes"/>
      <point x="155" y="1241" type="line"/>
    </contour>
    <contour>
      <point x="328" y="129" type="line"/>
      <point x="328" y="615" type="line"/>
      <point x="492" y="615" type="line" smooth="yes"/>
      <point x="705" y="615"/>
      <point x="842" y="517"/>
      <point x="842" y="362" type="curve" smooth="yes"/>
      <point x="842" y="206"/>
      <point x="741" y="129"/>
      <point x="504" y="129" type="curve" smooth="yes"/>
    </contour>
    <contour>
      <point x="329" y="737" type="line"/>
      <point x="329" y="1113" type="line"/>
      <point x="471" y="1113" type="line" smooth="yes"/>
      <point x="668" y="1113"/>
      <point x="780" y="1077"/>
      <point x="780" y="930" type="curve" smooth="yes"/>
      <point x="780" y="739"/>
      <point x="574" y="737"/>
      <point x="469" y="737" type="curve" smooth="yes"/>
    </contour>
  </outline>
</glyph>
<glyph name="C" format="1">
  <advance width="1287"/>
  <unicode hex="0043"/>
  <outline>
    <contour>
      <point x="769" y="-34" type="curve" smooth="yes"/>
      <point x="956" y="-34"/>
      <point x="1123" y="36"/>
      <point x="1174" y="60" type="curve"/>
      <point x="1174" y="219" type="line"/>
      <point x="1064" y="157"/>
      <point x="912" y="113"/>
      <point x="784" y="113" type="curve" smooth="yes"/>
      <point x="486" y="113"/>
      <point x="270" y="288"/>
      <point x="270" y="622" type="curve" smooth="yes"/>
      <point x="270" y="957"/>
      <point x="487" y="1127"/>
      <point x="779" y="1127" type="curve" smooth="yes"/>
      <point x="922" y="1127"/>
      <point x="1063" y="1080"/>
      <point x="1174" y="1017" type="curve"/>
      <point x="1174" y="1170" type="line"/>
      <point x="1126" y="1199"/>
      <point x="957" y="1274"/>
      <point x="770" y="1274" type="curve" smooth="yes"/>
      <point x="381" y="1274"/>
      <point x="93" y="1029"/>
      <point x="93" y="622" type="curve" smooth="yes"/>
      <point x="93" y="217"/>
      <point x="375" y="-34"/>
    </contour>
    <contour>
      <point x="644" y="1241" type="move" name="top"/>
    </contour>
    <contour>
      <point x="644" y="0" type="move" name="bottom"/>
    </contour>
  </outline>
</glyph>
<glyph name="D" format="1">
  <advance width="1399"/>
  <unicode hex="0044"/>
  <outline>
    <contour>
      <point x="155" y="0" type="line"/>
      <point x="646" y="0" type="line" smooth="yes"/>
      <point x="1068" y="0"/>
      <point x="1300" y="296"/>
      <point x="1300" y="627" type="curve" smooth="yes"/>
      <point x="1300" y="989"/>
      <point x="1086" y="1241"/>
      <point x="675" y="1241" type="curve" smooth="yes"/>
      <point x="155" y="1241" type="line"/>
    </contour>
    <contour>
      <point x="327" y="139" type="line"/>
      <point x="327" y="1103" type="line"/>
      <point x="671" y="1103" type="line" smooth="yes"/>
      <point x="947" y="1103"/>
      <point x="1124" y="943"/>
      <point x="1124" y="624" type="curve" smooth="yes"/>
      <point x="1124" y="341"/>
      <point x="934" y="139"/>
      <point x="623" y="139" type="curve" smooth="yes"/>
    </contour>
    <contour>
      <point x="700" y="1241" type="move" name="top"/>
    </contour>
    <contour>
      <point x="700" y="621" type="move" name="center"/>
    </contour>
  </outline>
</glyph>
<glyph name="E" format="1">
  <advance width="973"/>
  <unicode hex="0045"/>
  <outline>
    <contour>
      <point x="182" y="0" type="line"/>
      <point x="913" y="0" type="line"/>
      <point x="913" y="148" type="line"/>
      <point x="352" y="148" type="line"/>
      <point x="352" y="568" type="line"/>
      <point x="839" y="568" type="line"/>
      <point x="839" y="713" type="line"/>
      <point x="354" y="713" type="line"/>
      <point x="354" y="1095" type="line"/>
      <point x="903" y="1095" type="line"/>
      <point x="903" y="1241" type="line"/>
      <point x="182" y="1241" type="line"/>
    </contour>
    <contour>
      <point x="487" y="1241" type="move" name="top"/>
    </contour>
    <contour>
      <point x="876" y="10" type="move" name="ogonek"/>
    </contour>
    <contour>
      <point x="487" y="0" type="move" name="bottom"/>
    </contour>
  </outline>
</glyph>
<glyph name="F" format="1">
  <advance width="931"/>
  <unicode hex="0046"/>
  <outline>
    <contour>
      <point x="182" y="0" type="line"/>
      <point x="354" y="0" type="line"/>
      <point x="354" y="586" type="line"/>
      <point x="766" y="586" type="line"/>
      <point x="766" y="731" type="line"/>
      <point x="354" y="731" type="line"/>
      <point x="354" y="1095" type="line"/>
      <point x="832" y="1095" type="line"/>
      <point x="832" y="1241" type="line"/>
      <point x="182" y="1241" type="line"/>
    </contour>
  </outline>
</glyph>
<glyph name="G" format="1">
  <advance width="1392"/>
  <unicode hex="0047"/>
  <outline>
    <contour>
      <point x="756" y="-34" type="curve" smooth="yes"/>
      <point x="1025" y="-34"/>
      <point x="1165" y="32"/>
      <point x="1292" y="106" type="curve"/>
      <point x="1292" y="675" type="line"/>
      <point x="791" y="675" type="line"/>
      <point x="791" y="535" type="line"/>
      <point x="1129" y="535" type="line"/>
      <point x="1129" y="189" type="line"/>
      <point x="1108" y="181"/>
      <point x="981" y="113"/>
      <point x="779" y="113" type="curve" smooth="yes"/>
      <point x="520" y="113"/>
      <point x="271" y="267"/>
      <point x="271" y="621" type="curve" smooth="yes"/>
      <point x="271" y="969"/>
      <point x="507" y="1127"/>
      <point x="786" y="1127" type="curve" smooth="yes"/>
      <point x="916" y="1127"/>
      <point x="1055" y="1092"/>
      <point x="1182" y="1027" type="curve"/>
      <point x="1182" y="1184" type="line"/>
      <point x="1132" y="1205"/>
      <point x="957" y="1274"/>
      <point x="770" y="1274" type="curve" smooth="yes"/>
      <point x="398" y="1274"/>
      <point x="93" y="1025"/>
      <point x="93" y="621" type="curve" smooth="yes"/>
      <point x="93" y="198"/>
      <point x="419" y="-34"/>
    </contour>
    <contour>
      <point x="696" y="1241" type="move" name="top"/>
    </contour>
    <contour>
      <point x="696" y="0" type="move" name="bottom"/>
    </contour>
  </outline>
</glyph>
<glyph name="H" format="1">
  <advance width="1336"/>
  <unicode hex="0048"/>
  <outline>
    <contour>
      <point x="155" y="0" type="line"/>
      <point x="331" y="0" type="line"/>
      <point x="331" y="581" type="line"/>
      <point x="1005" y="581" type="line"/>
      <point x="1005" y="0" type="line"/>
      <point x="1180" y="0" type="line"/>
      <point x="1180" y="1241" type="line"/>
      <point x="1005" y="1241" type="line"/>
      <point x="1005" y="726" type="line"/>
      <point x="331" y="726" type="line"/>
      <point x="331" y="1241" type="line"/>
      <point x="155" y="1241" type="line"/>
    </contour>
    <contour>
      <point x="668" y="1241" type="move" name="top"/>
    </contour>
    <contour>
      <point x="668" y="621" type="move" name="center"/>
    </contour>
  </outline>
</glyph>
<glyph name="J" format="1">
  <advance width="988"/>
  <unicode hex="004A"/>
  <outline>
    <contour>
      <point x="399" y="-20" type="curve" smooth="yes"/>
      <point x="678" y="-20"/>
      <point x="781" y="130"/>
      <point x="781" y="458" type="curve" smooth="yes"/>
      <point x="781" y="1242" type="line"/>
      <point x="609" y="1242" type="line"/>
      <point x="609" y="449" type="line" smooth="yes"/>
      <point x="609" y="201"/>
      <point x="534" y="118"/>
      <point x="390" y="118" type="curve" smooth="yes"/>
      <point x="306" y="118"/>
      <point x="220" y="154"/>
      <point x="148" y="187" type="curve"/>
      <point x="148" y="45" type="line"/>
      <point x="171" y="33"/>
      <point x="257" y="-20"/>
    </contour>
    <contour>
      <point x="494" y="1241" type="move" name="top"/>
    </contour>
  </outline>
</glyph>
<glyph name="K" format="1">
  <advance width="1147"/>
  <unicode hex="004B"/>
  <outline>
    <contour>
      <point x="155" y="0" type="line"/>
      <point x="329" y="0" type="line"/>
      <point x="329" y="605" type="line"/>
      <point x="907" y="0" type="line"/>
      <point x="1122" y="0" type="line"/>
      <point x="509" y="640" type="line"/>
      <point x="1081" y="1241" type="line"/>
      <point x="872" y="1241" type="line"/>
      <point x="328" y="675" type="line"/>
      <point x="328" y="1241" type="line"/>
      <point x="155" y="1241" type="line"/>
    </contour>
    <contour>
      <point x="574" y="1241" type="move" name="top"/>
    </contour>
    <contour>
      <point x="574" y="0" type="move" name="bottom"/>
    </contour>
  </outline>
</glyph>
<glyph name="L" format="1">
  <advance width="1009"/>
  <unicode hex="004C"/>
  <outline>
    <contour>
      <point x="182" y="0" type="line"/>
      <point x="887" y="0" type="line"/>
      <point x="887" y="149" type="line"/>
      <point x="358" y="149" type="line"/>
      <point x="358" y="1241" type="line"/>
      <point x="182" y="1241" type="line"/>
    </contour>
    <contour>
      <point x="505" y="1241" type="move" name="top"/>
    </contour>
    <contour>
      <point x="505" y="0" type="move" name="bottom"/>
    </contour>
  </outline>
</glyph>
<glyph name="M" format="1">
  <advance width="1685"/>
  <unicode hex="004D"/>
  <outline>
    <contour>
      <point x="843" y="13" type="line"/>
      <point x="1300" y="816" type="line"/>
      <point x="1427" y="0" type="line"/>
      <point x="1598" y="0" type="line"/>
      <point x="1389" y="1285" type="line"/>
      <point x="842" y="314" type="line"/>
      <point x="296" y="1285" type="line"/>
      <point x="87" y="0" type="line"/>
      <point x="258" y="0" type="line"/>
      <point x="385" y="816" type="line"/>
    </contour>
  </outline>
</glyph>
<glyph name="N" format="1">
  <advance width="1361"/>
  <unicode hex="004E"/>
  <outline>
    <contour>
      <point x="1205" y="-38" type="line"/>
      <point x="1205" y="1241" type="line"/>
      <point x="1030" y="1241" type="line"/>
      <point x="1030" y="358" type="line"/>
      <point x="155" y="1276" type="line"/>
      <point x="155" y="0" type="line"/>
      <point x="331" y="0" type="line"/>
      <point x="331" y="873" type="line"/>
    </contour>
    <contour>
      <point x="681" y="1241" type="move" name="top"/>
    </contour>
    <contour>
      <point x="681" y="0" type="move" name="bottom"/>
    </contour>
  </outline>
</glyph>
<glyph name="O" format="1">
  <advance width="1524"/>
  <unicode hex="004F"/>
  <outline>
    <contour>
      <point x="758" y="113" type="curve" smooth="yes"/>
      <point x="510" y="113"/>
      <point x="271" y="276"/>
      <point x="271" y="619" type="curve" smooth="yes"/>
      <point x="271" y="964"/>
      <point x="500" y="1128"/>
      <point x="758" y="1128" type="curve" smooth="yes"/>
      <point x="1015" y="1128"/>
      <point x="1248" y="964"/>
      <point x="1248" y="618" type="curve" smooth="yes"/>
      <point x="1248" y="277"/>
      <point x="995" y="113"/>
    </contour>
    <contour>
      <point x="759" y="-34" type="curve" smooth="yes"/>
      <point x="1095" y="-34"/>
      <point x="1425" y="183"/>
      <point x="1425" y="623" type="curve" smooth="yes"/>
      <point x="1425" y="1058"/>
      <point x="1095" y="1275"/>
      <point x="758" y="1275" type="curve" smooth="yes"/>
      <point x="422" y="1275"/>
      <point x="93" y="1058"/>
      <point x="93" y="620" type="curve" smooth="yes"/>
      <point x="93" y="183"/>
      <point x="422" y="-34"/>
    </contour>
    <contour>
      <point x="763" y="1241" type="move" name="top"/>
    </contour>
  </outline>
</glyph>
<glyph name="P" format="1">
  <advance width="1063"/>
  <unicode hex="0050"/>
  <outline>
    <contour>
      <point x="196" y="0" type="line"/>
      <point x="370" y="0" type="line"/>
      <point x="370" y="517" type="line"/>
      <point x="514" y="517" type="line" smooth="yes"/>
      <point x="762" y="517"/>
      <point x="1003" y="578"/>
      <point x="1003" y="880" type="curve" smooth="yes"/>
      <point x="1003" y="1126"/>
      <point x="824" y="1242"/>
      <point x="529" y="1242" type="curve" smooth="yes"/>
      <point x="196" y="1242" type="line"/>
    </contour>
    <contour>
      <point x="370" y="634" type="line"/>
      <point x="370" y="1116" type="line"/>
      <point x="521" y="1116" type="line" smooth="yes"/>
      <point x="752" y="1116"/>
      <point x="834" y="1013"/>
      <point x="834" y="875" type="curve" smooth="yes"/>
      <point x="834" y="704"/>
      <point x="714" y="634"/>
      <point x="525" y="634" type="curve" smooth="yes"/>
    </contour>
  </outline>
</glyph>
<glyph name="Q" format="1">
  <advance width="1524"/>
  <unicode hex="0051"/>
  <outline>
    <contour>
      <point x="1250" y="-162" type="line"/>
      <point x="1378" y="-64" type="line"/>
      <point x="952" y="315" type="line"/>
      <point x="880" y="237" type="line"/>
    </contour>
    <component base="O"/>
  </outline>
</glyph>
<glyph name="R" format="1">
  <advance width="1087"/>
  <unicode hex="0052"/>
  <outline>
    <contour>
      <point x="196" y="0" type="line"/>
      <point x="370" y="0" type="line"/>
      <point x="370" y="561" type="line"/>
      <point x="402" y="561" type="line"/>
      <point x="857" y="0" type="line"/>
      <point x="1064" y="0" type="line"/>
      <point x="579" y="575" type="line"/>
      <point x="813" y="593"/>
      <point x="972" y="687"/>
      <point x="972" y="904" type="curve" smooth="yes"/>
      <point x="972" y="1135"/>
      <point x="790" y="1241"/>
      <point x="501" y="1241" type="curve" smooth="yes"/>
      <point x="196" y="1241" type="line"/>
    </contour>
    <contour>
      <point x="370" y="676" type="line"/>
      <point x="370" y="1116" type="line"/>
      <point x="493" y="1116" type="line" smooth="yes"/>
      <point x="720" y="1116"/>
      <point x="803" y="1036"/>
      <point x="803" y="899" type="curve" smooth="yes"/>
      <point x="803" y="728"/>
      <point x="660" y="676"/>
      <point x="461" y="676" type="curve" smooth="yes"/>
    </contour>
    <contour>
      <point x="544" y="1241" type="move" name="top"/>
    </contour>
    <contour>
      <point x="544" y="0" type="move" name="bottom"/>
    </contour>
  </outline>
</glyph>
<glyph name="S" format="1">
  <advance width="956"/>
  <unicode hex="0053"/>
  <outline>
    <contour>
      <point x="510" y="-34" type="curve" smooth="yes"/>
      <point x="701" y="-34"/>
      <point x="880" y="68"/>
      <point x="880" y="291" type="curve" smooth="yes"/>
      <point x="880" y="411"/>
      <point x="818" y="510"/>
      <point x="645" y="624" type="curve" smooth="yes"/>
      <point x="403" y="781" type="line" smooth="yes"/>
      <point x="322" y="834"/>
      <point x="270" y="894"/>
      <point x="270" y="964" type="curve" smooth="yes"/>
      <point x="270" y="1053"/>
      <point x="337" y="1130"/>
      <point x="505" y="1130" type="curve" smooth="yes"/>
      <point x="613" y="1130"/>
      <point x="749" y="1083"/>
      <point x="817" y="1047" type="curve"/>
      <point x="817" y="1198" type="line" smooth="yes"/>
      <point x="775" y="1220"/>
      <point x="649" y="1275"/>
      <point x="483" y="1275" type="curve" smooth="yes"/>
      <point x="230" y="1275"/>
      <point x="102" y="1129"/>
      <point x="102" y="957" type="curve" smooth="yes"/>
      <point x="102" y="843"/>
      <point x="180" y="742"/>
      <point x="296" y="666" type="curve" smooth="yes"/>
      <point x="560" y="496" type="line" smooth="yes"/>
      <point x="668" y="427"/>
      <point x="712" y="356"/>
      <point x="712" y="285" type="curve" smooth="yes"/>
      <point x="712" y="182"/>
      <point x="641" y="111"/>
      <point x="496" y="111" type="curve" smooth="yes"/>
      <point x="346" y="111"/>
      <point x="204" y="178"/>
      <point x="132" y="226" type="curve" smooth="yes"/>
      <point x="132" y="75" type="line" smooth="yes"/>
      <point x="173" y="50"/>
      <point x="295" y="-34"/>
    </contour>
    <contour>
      <point x="478" y="1241" type="move" name="top"/>
    </contour>
    <contour>
      <point x="478" y="0" type="move" name="bottom"/>
    </contour>
  </outline>
</glyph>
<glyph name="T" format="1">
  <advance width="1122"/>
  <unicode hex="0054"/>
  <outline>
    <contour>
      <point x="469" y="0" type="line"/>
      <point x="645" y="0" type="line"/>
      <point x="645" y="1092" type="line"/>
      <point x="1032" y="1092" type="line"/>
      <point x="1032" y="1241" type="line"/>
      <point x="82" y="1241" type="line"/>
      <point x="82" y="1092" type="line"/>
      <point x="469" y="1092" type="line"/>
    </contour>
    <contour>
      <point x="561" y="1241" type="move" name="top"/>
    </contour>
    <contour>
      <point x="561" y="621" type="move" name="center"/>
    </contour>
    <contour>
      <point x="561" y="0" type="move" name="bottom"/>
    </contour>
  </outline>
</glyph>
<glyph name="U" format="1">
  <advance width="1402"/>
  <unicode hex="0055"/>
  <outline>
    <contour>
      <point x="690" y="-33" type="curve" smooth="yes"/>
      <point x="1007" y="-33"/>
      <point x="1243" y="142"/>
      <point x="1243" y="493" type="curve" smooth="yes"/>
      <point x="1243" y="1241" type="line"/>
      <point x="1072" y="1241" type="line"/>
      <point x="1072" y="485" type="line" smooth="yes"/>
      <point x="1072" y="219"/>
      <point x="917" y="107"/>
      <point x="690" y="107" type="curve" smooth="yes"/>
      <point x="463" y="107"/>
      <point x="308" y="219"/>
      <point x="308" y="485" type="curve" smooth="yes"/>
      <point x="308" y="1241" type="line"/>
      <point x="137" y="1241" type="line"/>
      <point x="137" y="493" type="line" smooth="yes"/>
      <point x="137" y="142"/>
      <point x="373" y="-33"/>
    </contour>
    <contour>
      <point x="701" y="1241" type="move" name="top"/>
    </contour>
    <contour>
      <point x="1262" y="10" type="move" name="ogonek"/>
    </contour>
  </outline>
</glyph>
<glyph name="V" format="1">
  <advance width="1264"/>
  <unicode hex="0056"/>
  <outline>
    <contour>
      <point x="643" y="-29" type="line"/>
      <point x="1218" y="1241" type="line"/>
      <point x="1029" y="1241" type="line"/>
      <point x="641" y="344" type="line"/>
      <point x="227" y="1241" type="line"/>
      <point x="44" y="1241" type="line"/>
    </contour>
  </outline>
</glyph>
<glyph name="W" format="1">
  <advance width="1757"/>
  <unicode hex="0057"/>
  <outline>
    <contour>
      <point x="481" y="-30" type="line"/>
      <point x="813" y="836" type="line"/>
      <point x="1173" y="-29" type="line"/>
      <point x="1662" y="1241" type="line"/>
      <point x="1476" y="1241" type="line"/>
      <point x="1162" y="386" type="line"/>
      <point x="809" y="1245" type="line"/>
      <point x="481" y="386" type="line"/>
      <point x="140" y="1241" type="line"/>
      <point x="-40" y="1241" type="line"/>
    </contour>
    <contour>
      <point x="879" y="1241" type="move" name="top"/>
    </contour>
  </outline>
</glyph>
<glyph name="X" format="1">
  <advance width="1519"/>
  <unicode hex="0058"/>
  <outline>
    <contour>
      <point x="1284" y="0" type="line"/>
      <point x="1491" y="0" type="line"/>
      <point x="370" y="1241" type="line"/>
      <point x="171" y="1241" type="line"/>
    </contour>
    <contour>
      <point x="167" y="0" type="line"/>
      <point x="385" y="0" type="line"/>
      <point x="1439" y="1241" type="line"/>
      <point x="1227" y="1241" type="line"/>
    </contour>
  </outline>
</glyph>
<glyph name="Y" format="1">
  <advance width="1259"/>
  <unicode hex="0059"/>
  <outline>
    <contour>
      <point x="546" y="0" type="line"/>
      <point x="722" y="0" type="line"/>
      <point x="722" y="471" type="line"/>
      <point x="1145" y="1241" type="line"/>
      <point x="961" y="1241" type="line"/>
      <point x="636" y="622" type="line"/>
      <point x="287" y="1241" type="line"/>
      <point x="110" y="1241" type="line"/>
      <point x="546" y="475" type="line"/>
    </contour>
    <contour>
      <point x="630" y="1241" type="move" name="top"/>
    </contour>
  </outline>
</glyph>
<glyph name="Z" format="1">
  <advance width="1059"/>
  <unicode hex="005A"/>
  <outline>
    <contour>
      <point x="103" y="0" type="line"/>
      <point x="923" y="0" type="line"/>
      <point x="923" y="149" type="line"/>
      <point x="369" y="149" type="line"/>
      <point x="924" y="1241" type="line"/>
      <point x="134" y="1241" type="line"/>
      <point x="134" y="1092" type="line"/>
      <point x="667" y="1092" type="line"/>
    </contour>
    <contour>
      <point x="530" y="1241" type="move" name="top"/>
    </contour>
  </outline>
</glyph>
<glyph name="bracketleft" format="1">
  <advance width="815"/>
  <unicode hex="005B"/>
  <outline>
    <contour>
      <point x="217" y="0" type="line"/>
      <point x="669" y="0" type="line"/>
      <point x="669" y="135" type="line"/>
      <point x="393" y="135" type="line"/>
      <point x="393" y="1106" type="line"/>
      <point x="669" y="1106" type="line"/>
      <point x="669" y="1241" type="line"/>
      <point x="217" y="1241" type="line"/>
    </contour>
  </outline>
</glyph>
<glyph name="backslash" format="1">
  <advance width="592"/>
  <unicode hex="005C"/>
  <outline>
    <contour>
      <point x="82" y="0" type="line"/>
      <point x="238" y="0" type="line"/>
      <point x="794" y="1241" type="line"/>
      <point x="636" y="1241" type="line"/>
    </contour>
  </outline>
</glyph>
<glyph name="bracketright" format="1">
  <advance width="815"/>
  <unicode hex="005D"/>
  <outline>
    <contour>
      <point x="212" y="0" type="line"/>
      <point x="664" y="0" type="line"/>
      <point x="664" y="1241" type="line"/>
      <point x="212" y="1241" type="line"/>
      <point x="212" y="1106" type="line"/>
      <point x="489" y="1106" type="line"/>
      <point x="489" y="135" type="line"/>
      <point x="212" y="135" type="line"/>
    </contour>
  </outline>
</glyph>
<glyph name="underscore" format="1">
  <advance width="988"/>
  <unicode hex="005F"/>
  <outline>
    <contour>
      <point x="149" y="-134" type="line"/>
      <point x="854" y="-134" type="line"/>
      <point x="854" y="0" type="line"/>
      <point x="149" y="0" type="line"/>
    </contour>
  </outline>
</glyph>
<glyph name="grave" format="1">
  <advance width="464"/>
  <unicode hex="0060"/>
  <outline>
    <contour>
      <point x="372" y="109" type="curve" smooth="yes"/>
      <point x="364" y="109"/>
      <point x="355" y="114"/>
      <point x="346" y="123" type="curve" smooth="yes"/>
      <point x="101" y="405" type="line" smooth="yes"/>
      <point x="83" y="425"/>
      <point x="76" y="445"/>
      <point x="76" y="463" type="curve" smooth="yes"/>
      <point x="76" y="502"/>
      <point x="111" y="533"/>
      <point x="149" y="533" type="curve" smooth="yes"/>
      <point x="176" y="533"/>
      <point x="206" y="516"/>
      <point x="226" y="477" type="curve" smooth="yes"/>
      <point x="390" y="154" type="line" smooth="yes"/>
      <point x="394" y="146"/>
      <point x="395" y="140"/>
      <point x="395" y="134" type="curve" smooth="yes"/>
      <point x="395" y="119"/>
      <point x="385" y="109"/>
    </contour>
    <contour>
      <point x="235" y="840" type="move" name="_top"/>
    </contour>
  </outline>
</glyph>
<glyph name="a" format="1">
  <advance width="916"/>
  <unicode hex="0061"/>
  <outline>
    <contour>
      <point x="397" y="100" type="curve" smooth="yes"/>
      <point x="325" y="100"/>
      <point x="283" y="151"/>
      <point x="283" y="217" type="curve" smooth="yes"/>
      <point x="283" y="273"/>
      <point x="306" y="338"/>
      <point x="432" y="374" type="curve" smooth="yes"/>
      <point x="438" y="377"/>
      <point x="577" y="412"/>
      <point x="584" y="414" type="curve"/>
      <point x="584" y="187" type="line"/>
      <point x="541" y="140"/>
      <point x="472" y="100"/>
    </contour>
    <contour>
      <point x="365" y="-18" type="curve" smooth="yes"/>
      <point x="420" y="-18"/>
      <point x="518" y="-6"/>
      <point x="614" y="102" type="curve"/>
      <point x="631" y="70"/>
      <point x="699" y="-10"/>
      <point x="818" y="-10" type="curve" smooth="yes"/>
      <point x="818" y="-10"/>
      <point x="823" y="-10"/>
      <point x="827" y="-10" type="curve"/>
      <point x="867" y="126" type="line"/>
      <point x="852" y="126" type="line" smooth="yes"/>
      <point x="799" y="126"/>
      <point x="750" y="159"/>
      <point x="750" y="239" type="curve" smooth="yes"/>
      <point x="750" y="580" type="line" smooth="yes"/>
      <point x="750" y="777"/>
      <point x="592" y="857"/>
      <point x="445" y="857" type="curve" smooth="yes"/>
      <point x="288" y="857"/>
      <point x="164" y="793"/>
      <point x="122" y="769" type="curve"/>
      <point x="169" y="647" type="line"/>
      <point x="223" y="674"/>
      <point x="328" y="725"/>
      <point x="416" y="725" type="curve" smooth="yes"/>
      <point x="498" y="725"/>
      <point x="585" y="703"/>
      <point x="585" y="546" type="curve" smooth="yes"/>
      <point x="585" y="508" type="line"/>
      <point x="436" y="474" type="line" smooth="yes"/>
      <point x="159" y="411"/>
      <point x="118" y="288"/>
      <point x="118" y="203" type="curve" smooth="yes"/>
      <point x="118" y="68"/>
      <point x="229" y="-18"/>
    </contour>
    <contour>
      <point x="458" y="840" type="move" name="top"/>
    </contour>
    <contour>
      <point x="824" y="10" type="move" name="ogonek"/>
    </contour>
  </outline>
</glyph>
<glyph name="b" format="1">
  <advance width="1078"/>
  <unicode hex="0062"/>
  <outline>
    <contour>
      <point x="505" y="-17" type="curve" smooth="yes"/>
      <point x="797" y="-17"/>
      <point x="978" y="156"/>
      <point x="978" y="428" type="curve" smooth="yes"/>
      <point x="978" y="668"/>
      <point x="817" y="857"/>
      <point x="585" y="857" type="curve" smooth="yes"/>
      <point x="435" y="857"/>
      <point x="340" y="787"/>
      <point x="321" y="777" type="curve"/>
      <point x="321" y="1251" type="line"/>
      <point x="154" y="1225" type="line"/>
      <point x="154" y="46" type="line"/>
      <point x="284" y="5"/>
      <point x="405" y="-17"/>
    </contour>
    <contour>
      <point x="495" y="110" type="curve" smooth="yes"/>
      <point x="418" y="110"/>
      <point x="357" y="124"/>
      <point x="321" y="131" type="curve"/>
      <point x="321" y="654" type="line"/>
      <point x="334" y="660"/>
      <point x="452" y="726"/>
      <point x="555" y="726" type="curve" smooth="yes"/>
      <point x="738" y="726"/>
      <point x="813" y="575"/>
      <point x="813" y="415" type="curve" smooth="yes"/>
      <point x="813" y="213"/>
      <point x="681" y="110"/>
    </contour>
  </outline>
</glyph>
<glyph name="c" format="1">
  <advance width="911"/>
  <unicode hex="0063"/>
  <outline>
    <contour>
      <point x="573" y="-18" type="curve" smooth="yes"/>
      <point x="699" y="-18"/>
      <point x="784" y="28"/>
      <point x="819" y="47" type="curve"/>
      <point x="819" y="185" type="line"/>
      <point x="780" y="165"/>
      <point x="698" y="117"/>
      <point x="573" y="117" type="curve" smooth="yes"/>
      <point x="361" y="117"/>
      <point x="261" y="256"/>
      <point x="261" y="421" type="curve" smooth="yes"/>
      <point x="261" y="579"/>
      <point x="369" y="720"/>
      <point x="574" y="720" type="curve" smooth="yes"/>
      <point x="722" y="720"/>
      <point x="805" y="661"/>
      <point x="819" y="652" type="curve"/>
      <point x="819" y="794" type="line"/>
      <point x="801" y="806"/>
      <point x="715" y="857"/>
      <point x="568" y="857" type="curve" smooth="yes"/>
      <point x="297" y="857"/>
      <point x="100" y="681"/>
      <point x="100" y="420" type="curve" smooth="yes"/>
      <point x="100" y="165"/>
      <point x="284" y="-18"/>
    </contour>
    <contour>
      <point x="456" y="840" type="move" name="top"/>
    </contour>
    <contour>
      <point x="456" y="0" type="move" name="bottom"/>
    </contour>
  </outline>
</glyph>
<glyph name="d" format="1">
  <advance width="1079"/>
  <unicode hex="0064"/>
  <outline>
    <contour>
      <point x="574" y="-17" type="curve" smooth="yes"/>
      <point x="674" y="-17"/>
      <point x="795" y="5"/>
      <point x="926" y="46" type="curve"/>
      <point x="926" y="1251" type="line"/>
      <point x="759" y="1225" type="line"/>
      <point x="759" y="783" type="line"/>
      <point x="740" y="794"/>
      <point x="644" y="857"/>
      <point x="494" y="857" type="curve" smooth="yes"/>
      <point x="262" y="857"/>
      <point x="100" y="668"/>
      <point x="100" y="428" type="curve" smooth="yes"/>
      <point x="100" y="156"/>
      <point x="280" y="-17"/>
    </contour>
    <contour>
      <point x="584" y="110" type="curve" smooth="yes"/>
      <point x="399" y="110"/>
      <point x="265" y="213"/>
      <point x="265" y="415" type="curve" smooth="yes"/>
      <point x="265" y="578"/>
      <point x="348" y="726"/>
      <point x="537" y="726" type="curve" smooth="yes"/>
      <point x="651" y="726"/>
      <point x="745" y="667"/>
      <point x="759" y="661" type="curve"/>
      <point x="759" y="131" type="line"/>
      <point x="723" y="124"/>
      <point x="661" y="110"/>
    </contour>
    <contour>
      <point x="540" y="420" type="move" name="center"/>
    </contour>
  </outline>
</glyph>
<glyph name="e" format="1">
  <advance width="967"/>
  <unicode hex="0065"/>
  <outline>
    <contour>
      <point x="572" y="-18" type="curve" smooth="yes"/>
      <point x="696" y="-18"/>
      <point x="780" y="14"/>
      <point x="853" y="57" type="curve"/>
      <point x="853" y="192" type="line"/>
      <point x="792" y="156"/>
      <point x="711" y="111"/>
      <point x="576" y="111" type="curve" smooth="yes"/>
      <point x="417" y="111"/>
      <point x="281" y="189"/>
      <point x="262" y="388" type="curve"/>
      <point x="879" y="388" type="line"/>
      <point x="879" y="421" type="line" smooth="yes"/>
      <point x="879" y="652"/>
      <point x="769" y="857"/>
      <point x="505" y="857" type="curve" smooth="yes"/>
      <point x="277" y="857"/>
      <point x="100" y="675"/>
      <point x="100" y="435" type="curve" smooth="yes"/>
      <point x="100" y="132"/>
      <point x="315" y="-18"/>
    </contour>
    <contour>
      <point x="271" y="498" type="line"/>
      <point x="283" y="570"/>
      <point x="340" y="731"/>
      <point x="524" y="731" type="curve" smooth="yes"/>
      <point x="657" y="731"/>
      <point x="730" y="627"/>
      <point x="740" y="498" type="curve"/>
    </contour>
    <contour>
      <point x="484" y="840" type="move" name="top"/>
    </contour>
    <contour>
      <point x="871" y="10" type="move" name="ogonek"/>
    </contour>
    <contour>
      <point x="484" y="0" type="move" name="bottom"/>
    </contour>
  </outline>
</glyph>
<glyph name="f" format="1">
  <advance width="632"/>
  <unicode hex="0066"/>
  <outline>
    <contour>
      <point x="203" y="0" type="line"/>
      <point x="370" y="0" type="line"/>
      <point x="370" y="706" type="line"/>
      <point x="547" y="706" type="line"/>
      <point x="547" y="838" type="line"/>
      <point x="368" y="838" type="line"/>
      <point x="368" y="904" type="line" smooth="yes"/>
      <point x="368" y="1042"/>
      <point x="432" y="1082"/>
      <point x="512" y="1082" type="curve" smooth="yes"/>
      <point x="561" y="1082"/>
      <point x="610" y="1066"/>
      <point x="645" y="1056" type="curve"/>
      <point x="645" y="1195" type="line"/>
      <point x="605" y="1207"/>
      <point x="543" y="1224"/>
      <point x="484" y="1224" type="curve" smooth="yes"/>
      <point x="295" y="1224"/>
      <point x="200" y="1100"/>
      <point x="200" y="904" type="curve" smooth="yes"/>
      <point x="200" y="838" type="line"/>
      <point x="85" y="838" type="line"/>
      <point x="85" y="706" type="line"/>
      <point x="203" y="706" type="line"/>
    </contour>
  </outline>
</glyph>
<glyph name="g" format="1">
  <advance width="1074"/>
  <unicode hex="0067"/>
  <outline>
    <contour>
      <point x="568" y="-393" type="curve" smooth="yes"/>
      <point x="774" y="-393"/>
      <point x="932" y="-283"/>
      <point x="932" y="-17" type="curve" smooth="yes"/>
      <point x="932" y="838" type="line"/>
      <point x="766" y="838" type="line"/>
      <point x="766" y="777" type="line"/>
      <point x="753" y="790"/>
      <point x="648" y="856"/>
      <point x="502" y="856" type="curve" smooth="yes"/>
      <point x="264" y="856"/>
      <point x="100" y="662"/>
      <point x="100" y="421" type="curve" smooth="yes"/>
      <point x="100" y="175"/>
      <point x="259" y="-16"/>
      <point x="565" y="-16" type="curve" smooth="yes"/>
      <point x="626" y="-16"/>
      <point x="718" y="2"/>
      <point x="772" y="24" type="curve"/>
      <point x="772" y="21"/>
      <point x="772" y="-34"/>
      <point x="772" y="-36" type="curve" smooth="yes"/>
      <point x="772" y="-184"/>
      <point x="691" y="-256"/>
      <point x="571" y="-256" type="curve" smooth="yes"/>
      <point x="435" y="-256"/>
      <point x="338" y="-219"/>
      <point x="297" y="-200" type="curve"/>
      <point x="297" y="-337" type="line"/>
      <point x="336" y="-353"/>
      <point x="438" y="-393"/>
    </contour>
    <contour>
      <point x="571" y="112" type="curve" smooth="yes"/>
      <point x="372" y="112"/>
      <point x="265" y="218"/>
      <point x="265" y="411" type="curve" smooth="yes"/>
      <point x="265" y="573"/>
      <point x="349" y="725"/>
      <point x="544" y="725" type="curve" smooth="yes"/>
      <point x="658" y="725"/>
      <point x="753" y="667"/>
      <point x="765" y="660" type="curve"/>
      <point x="765" y="142" type="line"/>
      <point x="725" y="130"/>
      <point x="651" y="112"/>
    </contour>
    <contour>
      <point x="537" y="840" type="move" name="top"/>
    </contour>
  </outline>
</glyph>
<glyph name="h" format="1">
  <advance width="1175"/>
  <unicode hex="0068"/>
  <outline>
    <contour>
      <point x="166" y="0" type="line"/>
      <point x="335" y="0" type="line"/>
      <point x="335" y="591" type="line"/>
      <point x="342" y="606"/>
      <point x="464" y="728"/>
      <point x="628" y="728" type="curve" smooth="yes"/>
      <point x="756" y="728"/>
      <point x="825" y="680"/>
      <point x="825" y="559" type="curve" smooth="yes"/>
      <point x="825" y="0" type="line"/>
      <point x="994" y="0" type="line"/>
      <point x="994" y="580" type="line" smooth="yes"/>
      <point x="994" y="744"/>
      <point x="849" y="857"/>
      <point x="683" y="857" type="curve" smooth="yes"/>
      <point x="477" y="857"/>
      <point x="361" y="742"/>
      <point x="334" y="718" type="curve"/>
      <point x="334" y="1251" type="line"/>
      <point x="166" y="1224" type="line"/>
    </contour>
    <contour>
      <point x="588" y="840" type="move" name="top"/>
    </contour>
    <contour>
      <point x="588" y="420" type="move" name="center"/>
    </contour>
  </outline>
</glyph>
<glyph name="i" format="1">
  <advance width="519"/>
  <unicode hex="0069"/>
  <outline>
    <contour>
      <point x="260" y="1039" type="curve" smooth="yes"/>
      <point x="330" y="1039"/>
      <point x="369" y="1093"/>
      <point x="369" y="1148" type="curve" smooth="yes"/>
      <point x="369" y="1200"/>
      <point x="331" y="1256"/>
      <point x="260" y="1256" type="curve" smooth="yes"/>
      <point x="189" y="1256"/>
      <point x="149" y="1201"/>
      <point x="149" y="1148" type="curve" smooth="yes"/>
      <point x="149" y="1093"/>
      <point x="189" y="1039"/>
    </contour>
    <contour>
      <point x="178" y="0" type="line"/>
      <point x="345" y="0" type="line"/>
      <point x="345" y="838" type="line"/>
      <point x="178" y="838" type="line"/>
    </contour>
  </outline>
</glyph>
<glyph name="j" format="1">
  <advance width="542"/>
  <unicode hex="006A"/>
  <outline>
    <contour>
      <point x="283" y="1036" type="curve" smooth="yes"/>
      <point x="353" y="1036"/>
      <point x="393" y="1090"/>
      <point x="393" y="1145" type="curve" smooth="yes"/>
      <point x="393" y="1198"/>
      <point x="353" y="1253"/>
      <point x="283" y="1253" type="curve" smooth="yes"/>
      <point x="213" y="1253"/>
      <point x="172" y="1199"/>
      <point x="172" y="1145" type="curve" smooth="yes"/>
      <point x="172" y="1090"/>
      <point x="213" y="1036"/>
    </contour>
    <contour>
      <point x="46" y="-331" type="line"/>
      <point x="332" y="-321"/>
      <point x="373" y="-173"/>
      <point x="373" y="-63" type="curve" smooth="yes"/>
      <point x="373" y="838" type="line"/>
      <point x="206" y="838" type="line"/>
      <point x="206" y="-52" type="line" smooth="yes"/>
      <point x="206" y="-153"/>
      <point x="134" y="-182"/>
      <point x="45" y="-192" type="curve" smooth="yes"/>
      <point x="39" y="-193"/>
      <point x="22" y="-196"/>
      <point x="16" y="-196" type="curve"/>
    </contour>
  </outline>
</glyph>
<glyph name="k" format="1">
  <advance width="937"/>
  <unicode hex="006B"/>
  <outline>
    <contour>
      <point x="154" y="-1" type="line"/>
      <point x="321" y="-1" type="line"/>
      <point x="321" y="403" type="line"/>
      <point x="728" y="0" type="line"/>
      <point x="941" y="0" type="line"/>
      <point x="487" y="449" type="line"/>
      <point x="884" y="837" type="line"/>
      <point x="677" y="837" type="line"/>
      <point x="321" y="484" type="line"/>
      <point x="321" y="1250" type="line"/>
      <point x="154" y="1226" type="line"/>
    </contour>
    <contour>
      <point x="468" y="0" type="move" name="bottom"/>
    </contour>
  </outline>
</glyph>
<glyph name="l" format="1">
  <advance width="627"/>
  <unicode hex="006C"/>
  <outline>
    <contour>
      <point x="392" y="-18" type="curve" smooth="yes"/>
      <point x="486" y="-18"/>
      <point x="542" y="5"/>
      <point x="570" y="16" type="curve"/>
      <point x="570" y="142" type="line"/>
      <point x="544" y="133"/>
      <point x="482" y="115"/>
      <point x="425" y="115" type="curve" smooth="yes"/>
      <point x="353" y="115"/>
      <point x="321" y="152"/>
      <point x="321" y="260" type="curve" smooth="yes"/>
      <point x="321" y="1251" type="line"/>
      <point x="154" y="1224" type="line"/>
      <point x="154" y="232" type="line" smooth="yes"/>
      <point x="154" y="64"/>
      <point x="260" y="-18"/>
    </contour>
    <contour>
      <point x="314" y="840" type="move" name="top"/>
    </contour>
    <contour>
      <point x="607" y="840" type="move" name="topright"/>
    </contour>
    <contour>
      <point x="314" y="0" type="move" name="bottom"/>
    </contour>
  </outline>
</glyph>
<glyph name="m" format="1">
  <advance width="1687"/>
  <unicode hex="006D"/>
  <outline>
    <contour>
      <point x="154" y="0" type="line"/>
      <point x="321" y="0" type="line"/>
      <point x="321" y="591" type="line"/>
      <point x="335" y="610"/>
      <point x="434" y="726"/>
      <point x="590" y="726" type="curve" smooth="yes"/>
      <point x="710" y="726"/>
      <point x="769" y="681"/>
      <point x="769" y="559" type="curve" smooth="yes"/>
      <point x="769" y="0" type="line"/>
      <point x="935" y="0" type="line"/>
      <point x="935" y="592" type="line"/>
      <point x="947" y="606"/>
      <point x="1046" y="726"/>
      <point x="1204" y="726" type="curve" smooth="yes"/>
      <point x="1328" y="726"/>
      <point x="1385" y="680"/>
      <point x="1385" y="556" type="curve" smooth="yes"/>
      <point x="1385" y="0" type="line"/>
      <point x="1552" y="0" type="line"/>
      <point x="1552" y="577" type="line" smooth="yes"/>
      <point x="1552" y="752"/>
      <point x="1422" y="856"/>
      <point x="1242" y="856" type="curve" smooth="yes"/>
      <point x="1051" y="856"/>
      <point x="935" y="741"/>
      <point x="903" y="707" type="curve"/>
      <point x="859" y="797"/>
      <point x="761" y="856"/>
      <point x="643" y="856" type="curve" smooth="yes"/>
      <point x="450" y="856"/>
      <point x="341" y="747"/>
      <point x="318" y="718" type="curve"/>
      <point x="318" y="838" type="line"/>
      <point x="154" y="838" type="line"/>
    </contour>
  </outline>
</glyph>
<glyph name="n" format="1">
  <advance width="1117"/>
  <unicode hex="006E"/>
  <outline>
    <contour>
      <point x="154" y="0" type="line"/>
      <point x="322" y="0" type="line"/>
      <point x="322" y="591" type="line"/>
      <point x="330" y="606"/>
      <point x="449" y="728"/>
      <point x="613" y="728" type="curve" smooth="yes"/>
      <point x="741" y="728"/>
      <point x="813" y="680"/>
      <point x="813" y="559" type="curve" smooth="yes"/>
      <point x="813" y="0" type="line"/>
      <point x="982" y="0" type="line"/>
      <point x="982" y="580" type="line" smooth="yes"/>
      <point x="982" y="744"/>
      <point x="833" y="857"/>
      <point x="668" y="857" type="curve" smooth="yes"/>
      <point x="461" y="857"/>
      <point x="346" y="742"/>
      <point x="319" y="718" type="curve"/>
      <point x="319" y="838" type="line"/>
      <point x="154" y="838" type="line"/>
    </contour>
    <contour>
      <point x="559" y="840" type="move" name="top"/>
    </contour>
    <contour>
      <point x="559" y="0" type="move" name="bottom"/>
    </contour>
  </outline>
</glyph>
<glyph name="o" format="1">
  <advance width="1117"/>
  <unicode hex="006F"/>
  <outline>
    <contour>
      <point x="558" y="-18" type="curve" smooth="yes"/>
      <point x="314" y="-18"/>
      <point x="100" y="144"/>
      <point x="100" y="417" type="curve" smooth="yes"/>
      <point x="100" y="692"/>
      <point x="315" y="857"/>
      <point x="559" y="857" type="curve" smooth="yes"/>
      <point x="791" y="857"/>
      <point x="1016" y="693"/>
      <point x="1016" y="417" type="curve" smooth="yes"/>
      <point x="1016" y="145"/>
      <point x="802" y="-18"/>
    </contour>
    <contour>
      <point x="558" y="113" type="curve" smooth="yes"/>
      <point x="757" y="113"/>
      <point x="858" y="264"/>
      <point x="858" y="417" type="curve" smooth="yes"/>
      <point x="858" y="571"/>
      <point x="754" y="725"/>
      <point x="558" y="725" type="curve" smooth="yes"/>
      <point x="362" y="725"/>
      <point x="259" y="571"/>
      <point x="259" y="418" type="curve" smooth="yes"/>
      <point x="259" y="253"/>
      <point x="360" y="113"/>
    </contour>
    <contour>
      <point x="558" y="840" type="move" name="top"/>
    </contour>
  </outline>
</glyph>
<glyph name="q" format="1">
  <advance width="1078"/>
  <unicode hex="0071"/>
  <outline>
    <contour>
      <point x="758" y="-400" type="line"/>
      <point x="925" y="-400" type="line"/>
      <point x="925" y="838" type="line"/>
      <point x="758" y="838" type="line"/>
      <point x="758" y="784" type="line"/>
      <point x="688" y="834"/>
      <point x="597" y="856"/>
      <point x="516" y="856" type="curve" smooth="yes"/>
      <point x="267" y="856"/>
      <point x="100" y="680"/>
      <point x="100" y="422" type="curve" smooth="yes"/>
      <point x="100" y="157"/>
      <point x="283" y="-18"/>
      <point x="565" y="-18" type="curve" smooth="yes"/>
      <point x="670" y="-18"/>
      <point x="741" y="3"/>
      <point x="758" y="10" type="curve"/>
    </contour>
    <contour>
      <point x="578" y="113" type="curve" smooth="yes"/>
      <point x="376" y="113"/>
      <point x="265" y="223"/>
      <point x="265" y="430" type="curve" smooth="yes"/>
      <point x="265" y="627"/>
      <point x="395" y="729"/>
      <point x="542" y="729" type="curve" smooth="yes"/>
      <point x="637" y="729"/>
      <point x="732" y="688"/>
      <point x="758" y="668" type="curve"/>
      <point x="758" y="135" type="line"/>
      <point x="758" y="135"/>
      <point x="689" y="113"/>
    </contour>
  </outline>
</glyph>
<glyph name="r" format="1">
  <advance width="750"/>
  <unicode hex="0072"/>
  <outline>
    <contour>
      <point x="154" y="0" type="line"/>
      <point x="320" y="0" type="line"/>
      <point x="320" y="400" type="line" smooth="yes"/>
      <point x="320" y="539"/>
      <point x="436" y="680"/>
      <point x="553" y="680" type="curve" smooth="yes"/>
      <point x="605" y="680"/>
      <point x="653" y="654"/>
      <point x="694" y="614" type="curve"/>
      <point x="754" y="744" type="line"/>
      <point x="690" y="811"/>
      <point x="635" y="843"/>
      <point x="578" y="843" type="curve" smooth="yes"/>
      <point x="445" y="843"/>
      <point x="331" y="627"/>
      <point x="320" y="588" type="curve"/>
      <point x="320" y="838" type="line"/>
      <point x="154" y="838" type="line"/>
    </contour>
    <contour>
      <point x="376" y="840" type="move" name="top"/>
    </contour>
    <contour>
      <point x="376" y="0" type="move" name="bottom"/>
    </contour>
  </outline>
</glyph>
<glyph name="s" format="1">
  <advance width="819"/>
  <unicode hex="0073"/>
  <outline>
    <contour>
      <point x="464" y="-18" type="curve" smooth="yes"/>
      <point x="650" y="-18"/>
      <point x="732" y="97"/>
      <point x="732" y="208" type="curve" smooth="yes"/>
      <point x="732" y="278"/>
      <point x="699" y="357"/>
      <point x="590" y="417" type="curve" smooth="yes"/>
      <point x="371" y="537" type="line" smooth="yes"/>
      <point x="317" y="566"/>
      <point x="294" y="592"/>
      <point x="294" y="640" type="curve" smooth="yes"/>
      <point x="294" y="690"/>
      <point x="344" y="731"/>
      <point x="431" y="731" type="curve" smooth="yes"/>
      <point x="530" y="731"/>
      <point x="619" y="693"/>
      <point x="666" y="673" type="curve"/>
      <point x="699" y="791" type="line"/>
      <point x="659" y="810"/>
      <point x="557" y="857"/>
      <point x="420" y="857" type="curve" smooth="yes"/>
      <point x="230" y="857"/>
      <point x="137" y="746"/>
      <point x="137" y="634" type="curve" smooth="yes"/>
      <point x="137" y="561"/>
      <point x="169" y="483"/>
      <point x="283" y="421" type="curve"/>
      <point x="496" y="306" type="line" smooth="yes"/>
      <point x="555" y="275"/>
      <point x="575" y="245"/>
      <point x="575" y="204" type="curve" smooth="yes"/>
      <point x="575" y="148"/>
      <point x="529" y="110"/>
      <point x="457" y="110" type="curve" smooth="yes"/>
      <point x="351" y="110"/>
      <point x="211" y="156"/>
      <point x="130" y="207" type="curve"/>
      <point x="113" y="79" type="line"/>
      <point x="150" y="55"/>
      <point x="277" y="-18"/>
    </contour>
    <contour>
      <point x="409" y="840" type="move" name="top"/>
    </contour>
    <contour>
      <point x="409" y="0" type="move" name="bottom"/>
    </contour>
  </outline>
</glyph>
<glyph name="t" format="1">
  <advance width="737"/>
  <unicode hex="0074"/>
  <outline>
    <contour>
      <point x="450" y="-19" type="curve" smooth="yes"/>
      <point x="581" y="-19"/>
      <point x="652" y="28"/>
      <point x="678" y="44" type="curve"/>
      <point x="678" y="168" type="line"/>
      <point x="646" y="154"/>
      <point x="568" y="114"/>
      <point x="479" y="114" type="curve" smooth="yes"/>
      <point x="412" y="114"/>
      <point x="356" y="135"/>
      <point x="356" y="231" type="curve" smooth="yes"/>
      <point x="356" y="709" type="line"/>
      <point x="633" y="709" type="line"/>
      <point x="633" y="837" type="line"/>
      <point x="356" y="837" type="line"/>
      <point x="356" y="1034" type="line"/>
      <point x="92" y="751" type="line"/>
      <point x="85" y="745"/>
      <point x="82" y="737"/>
      <point x="82" y="731" type="curve" smooth="yes"/>
      <point x="82" y="719"/>
      <point x="92" y="709"/>
      <point x="110" y="709" type="curve" smooth="yes"/>
      <point x="191" y="709" type="line"/>
      <point x="191" y="199" type="line" smooth="yes"/>
      <point x="191" y="58"/>
      <point x="313" y="-19"/>
    </contour>
    <contour>
      <point x="369" y="420" type="move" name="center"/>
    </contour>
    <contour>
      <point x="369" y="0" type="move" name="bottom"/>
    </contour>
  </outline>
</glyph>
<glyph name="u" format="1">
  <advance width="1118"/>
  <unicode hex="0075"/>
  <outline>
    <contour>
      <point x="460" y="-19" type="curve" smooth="yes"/>
      <point x="664" y="-19"/>
      <point x="772" y="98"/>
      <point x="798" y="122" type="curve"/>
      <point x="798" y="0" type="line"/>
      <point x="964" y="0" type="line"/>
      <point x="964" y="838" type="line"/>
      <point x="795" y="838" type="line"/>
      <point x="795" y="246" type="line"/>
      <point x="788" y="232"/>
      <point x="673" y="110"/>
      <point x="509" y="110" type="curve" smooth="yes"/>
      <point x="381" y="110"/>
      <point x="307" y="157"/>
      <point x="307" y="279" type="curve" smooth="yes"/>
      <point x="307" y="838" type="line"/>
      <point x="139" y="838" type="line"/>
      <point x="139" y="257" type="line" smooth="yes"/>
      <point x="139" y="95"/>
      <point x="282" y="-19"/>
    </contour>
    <contour>
      <point x="559" y="840" type="move" name="top"/>
    </contour>
    <contour>
      <point x="1006" y="10" type="move" name="ogonek"/>
    </contour>
  </outline>
</glyph>
<glyph name="v" format="1">
  <advance width="942"/>
  <unicode hex="0076"/>
  <outline>
    <contour>
      <point x="475" y="-31" type="line"/>
      <point x="903" y="838" type="line"/>
      <point x="728" y="838" type="line"/>
      <point x="476" y="275" type="line"/>
      <point x="216" y="838" type="line"/>
      <point x="39" y="838" type="line"/>
    </contour>
  </outline>
</glyph>
<glyph name="w" format="1">
  <advance width="1283"/>
  <unicode hex="0077"/>
  <outline>
    <contour>
      <point x="378" y="-18" type="line"/>
      <point x="647" y="570" type="line"/>
      <point x="912" y="-19" type="line"/>
      <point x="1247" y="838" type="line"/>
      <point x="1089" y="838" type="line"/>
      <point x="898" y="310" type="line"/>
      <point x="645" y="861" type="line"/>
      <point x="396" y="316" type="line"/>
      <point x="198" y="838" type="line"/>
      <point x="36" y="838" type="line"/>
    </contour>
    <contour>
      <point x="642" y="840" type="move" name="top"/>
    </contour>
  </outline>
</glyph>
<glyph name="x" format="1">
  <advance width="1023"/>
  <unicode hex="0078"/>
  <outline>
    <contour>
      <point x="46" y="0" type="line"/>
      <point x="245" y="0" type="line"/>
      <point x="513" y="333" type="line"/>
      <point x="793" y="0" type="line"/>
      <point x="977" y="0" type="line"/>
      <point x="611" y="421" type="line"/>
      <point x="967" y="837" type="line"/>
      <point x="766" y="837" type="line"/>
      <point x="507" y="520" type="line"/>
      <point x="235" y="837" type="line"/>
      <point x="49" y="837" type="line"/>
      <point x="410" y="432" type="line"/>
    </contour>
  </outline>
</glyph>
<glyph name="y" format="1">
  <advance width="949"/>
  <unicode hex="0079"/>
  <outline>
    <contour>
      <point x="179" y="-244" type="line"/>
      <point x="358" y="-244" type="line"/>
      <point x="927" y="838" type="line"/>
      <point x="749" y="838" type="line"/>
      <point x="498" y="348" type="line"/>
      <point x="205" y="838" type="line"/>
      <point x="21" y="838" type="line"/>
      <point x="409" y="212" type="line"/>
    </contour>
    <contour>
      <point x="475" y="840" type="move" name="top"/>
    </contour>
  </outline>
</glyph>
<glyph name="z" format="1">
  <advance width="875"/>
  <unicode hex="007A"/>
  <outline>
    <contour>
      <point x="87" y="0" type="line"/>
      <point x="775" y="0" type="line"/>
      <point x="775" y="129" type="line"/>
      <point x="347" y="129" type="line"/>
      <point x="804" y="838" type="line"/>
      <point x="126" y="838" type="line"/>
      <point x="126" y="711" type="line"/>
      <point x="558" y="711" type="line"/>
    </contour>
    <contour>
      <point x="437" y="840" type="move" name="top"/>
    </contour>
  </outline>
</glyph>
<glyph name="bar" format="1">
  <advance width="507"/>
  <unicode hex="007C"/>
  <outline>
    <contour>
      <point x="145" y="-130" type="line"/>
      <point x="145" y="-130"/>
      <point x="312" y="-130"/>
      <point x="312" y="-129" type="curve" smooth="yes"/>
      <point x="312" y="1251" type="line"/>
      <point x="145" y="1251" type="line"/>
    </contour>
  </outline>
</glyph>
<glyph name="asciitilde" format="1">
  <advance width="990"/>
  <unicode hex="007E"/>
  <outline>
    <contour>
      <point x="693" y="612" type="curve" smooth="yes"/>
      <point x="803" y="612"/>
      <point x="871" y="672"/>
      <point x="872" y="839" type="curve"/>
      <point x="766" y="839" type="line"/>
      <point x="763" y="775"/>
      <point x="736" y="735"/>
      <point x="688" y="735" type="curve" smooth="yes"/>
      <point x="599" y="735"/>
      <point x="438" y="853"/>
      <point x="305" y="853" type="curve" smooth="yes"/>
      <point x="202" y="853"/>
      <point x="120" y="791"/>
      <point x="119" y="626" type="curve"/>
      <point x="225" y="626" type="line"/>
      <point x="228" y="700"/>
      <point x="259" y="733"/>
      <point x="314" y="733" type="curve" smooth="yes"/>
      <point x="393" y="733"/>
      <point x="578" y="612"/>
    </contour>
  </outline>
</glyph>
<glyph name="cent" format="1">
  <advance width="953"/>
  <unicode hex="00A2"/>
  <outline>
    <contour>
      <point x="363" y="-197" type="line"/>
      <point x="438" y="-197" type="line"/>
      <point x="693" y="1018" type="line"/>
      <point x="613" y="1018" type="line"/>
    </contour>
    <component base="c"/>
  </outline>
</glyph>
<glyph name="sterling" format="1">
  <advance width="1038"/>
  <unicode hex="00A3"/>
  <outline>
    <contour>
      <point x="667" y="-25" type="curve" smooth="yes"/>
      <point x="834" y="-25"/>
      <point x="970" y="73"/>
      <point x="970" y="278" type="curve"/>
      <point x="818" y="278" type="line"/>
      <point x="818" y="176"/>
      <point x="754" y="114"/>
      <point x="653" y="114" type="curve" smooth="yes"/>
      <point x="556" y="114"/>
      <point x="461" y="163"/>
      <point x="408" y="231" type="curve"/>
      <point x="436" y="299"/>
      <point x="450" y="364"/>
      <point x="450" y="426" type="curve" smooth="yes"/>
      <point x="450" y="469"/>
      <point x="443" y="513"/>
      <point x="432" y="557" type="curve"/>
      <point x="675" y="557" type="line"/>
      <point x="675" y="679" type="line"/>
      <point x="393" y="679" type="line"/>
      <point x="364" y="768"/>
      <point x="333" y="850"/>
      <point x="333" y="915" type="curve" smooth="yes"/>
      <point x="333" y="1059"/>
      <point x="452" y="1130"/>
      <point x="563" y="1130" type="curve" smooth="yes"/>
      <point x="685" y="1130"/>
      <point x="760" y="1051"/>
      <point x="790" y="1025" type="curve"/>
      <point x="869" y="1140" type="line"/>
      <point x="816" y="1199"/>
      <point x="694" y="1274"/>
      <point x="550" y="1274" type="curve" smooth="yes"/>
      <point x="357" y="1274"/>
      <point x="161" y="1165"/>
      <point x="161" y="921" type="curve" smooth="yes"/>
      <point x="161" y="856"/>
      <point x="193" y="770"/>
      <point x="223" y="679" type="curve"/>
      <point x="115" y="679" type="line"/>
      <point x="115" y="557" type="line"/>
      <point x="262" y="557" type="line"/>
      <point x="272" y="513"/>
      <point x="280" y="468"/>
      <point x="280" y="425" type="curve" smooth="yes"/>
      <point x="280" y="307"/>
      <point x="226" y="169"/>
      <point x="99" y="0" type="curve"/>
      <point x="275" y="0" type="line"/>
      <point x="303" y="38"/>
      <point x="326" y="73"/>
      <point x="346" y="109" type="curve"/>
      <point x="433" y="27"/>
      <point x="553" y="-25"/>
    </contour>
  </outline>
</glyph>
<glyph name="yen" format="1">
  <advance width="1226"/>
  <unicode hex="00A5"/>
  <outline>
    <contour>
      <point x="532" y="0" type="line"/>
      <point x="707" y="0" type="line"/>
      <point x="707" y="415" type="line"/>
      <point x="981" y="415" type="line"/>
      <point x="981" y="528" type="line"/>
      <point x="739" y="528" type="line"/>
      <point x="805" y="648" type="line"/>
      <point x="1013" y="648" type="line"/>
      <point x="1013" y="760" type="line"/>
      <point x="867" y="760" type="line"/>
      <point x="1130" y="1241" type="line"/>
      <point x="947" y="1241" type="line"/>
      <point x="621" y="622" type="line"/>
      <point x="272" y="1241" type="line"/>
      <point x="96" y="1241" type="line"/>
      <point x="369" y="760" type="line"/>
      <point x="217" y="760" type="line"/>
      <point x="217" y="648" type="line"/>
      <point x="433" y="648" type="line"/>
      <point x="501" y="528" type="line"/>
      <point x="249" y="528" type="line"/>
      <point x="249" y="415" type="line"/>
      <point x="532" y="415" type="line"/>
    </contour>
  </outline>
</glyph>
<glyph name="brokenbar" format="1">
  <advance width="507"/>
  <unicode hex="00A6"/>
  <outline>
    <contour>
      <point x="171" y="-130" type="line"/>
      <point x="171" y="-130"/>
      <point x="338" y="-130"/>
      <point x="338" y="-129" type="curve" smooth="yes"/>
      <point x="338" y="420" type="line"/>
      <point x="171" y="420" type="line"/>
    </contour>
    <contour>
      <point x="171" y="694" type="line"/>
      <point x="171" y="694"/>
      <point x="338" y="693"/>
      <point x="338" y="694" type="curve" smooth="yes"/>
      <point x="338" y="1251" type="line"/>
      <point x="171" y="1251" type="line"/>
    </contour>
  </outline>
</glyph>
<glyph name="section" format="1">
  <advance width="852"/>
  <unicode hex="00A7"/>
  <outline>
    <contour>
      <point x="471" y="21" type="curve" smooth="yes"/>
      <point x="657" y="21"/>
      <point x="737" y="136"/>
      <point x="737" y="247" type="curve" smooth="yes"/>
      <point x="737" y="311"/>
      <point x="707" y="380"/>
      <point x="611" y="438" type="curve"/>
      <point x="701" y="476"/>
      <point x="741" y="551"/>
      <point x="741" y="628" type="curve" smooth="yes"/>
      <point x="741" y="696"/>
      <point x="710" y="770"/>
      <point x="602" y="829" type="curve" smooth="yes"/>
      <point x="373" y="955" type="line" smooth="yes"/>
      <point x="318" y="984"/>
      <point x="296" y="1010"/>
      <point x="296" y="1057" type="curve" smooth="yes"/>
      <point x="296" y="1109"/>
      <point x="349" y="1149"/>
      <point x="437" y="1149" type="curve" smooth="yes"/>
      <point x="537" y="1149"/>
      <point x="628" y="1106"/>
      <point x="671" y="1090" type="curve" smooth="yes"/>
      <point x="703" y="1207" type="line"/>
      <point x="664" y="1226"/>
      <point x="562" y="1273"/>
      <point x="425" y="1273" type="curve" smooth="yes"/>
      <point x="235" y="1273"/>
      <point x="141" y="1163"/>
      <point x="141" y="1051" type="curve" smooth="yes"/>
      <point x="141" y="982"/>
      <point x="173" y="911"/>
      <point x="277" y="851" type="curve"/>
      <point x="182" y="815"/>
      <point x="137" y="748"/>
      <point x="137" y="673" type="curve" smooth="yes"/>
      <point x="137" y="603"/>
      <point x="170" y="530"/>
      <point x="283" y="468" type="curve"/>
      <point x="500" y="347" type="line" smooth="yes"/>
      <point x="559" y="316"/>
      <point x="580" y="287"/>
      <point x="580" y="244" type="curve" smooth="yes"/>
      <point x="580" y="186"/>
      <point x="533" y="149"/>
      <point x="460" y="149" type="curve" smooth="yes"/>
      <point x="365" y="149"/>
      <point x="204" y="201"/>
      <point x="134" y="244" type="curve"/>
      <point x="117" y="119" type="line"/>
      <point x="154" y="94"/>
      <point x="284" y="21"/>
    </contour>
    <contour>
      <point x="497" y="503" type="curve"/>
      <point x="349" y="587" type="line" smooth="yes"/>
      <point x="294" y="616"/>
      <point x="273" y="641"/>
      <point x="273" y="688" type="curve" smooth="yes"/>
      <point x="273" y="737"/>
      <point x="319" y="777"/>
      <point x="398" y="783" type="curve"/>
      <point x="527" y="711" type="line" smooth="yes"/>
      <point x="586" y="680"/>
      <point x="607" y="649"/>
      <point x="607" y="607" type="curve" smooth="yes"/>
      <point x="607" y="554"/>
      <point x="565" y="509"/>
    </contour>
  </outline>
</glyph>
<glyph name="dieresis" format="1">
  <advance width="875"/>
  <unicode hex="00A8"/>
  <outline>
    <contour>
      <point x="624" y="102" type="curve" smooth="yes"/>
      <point x="690" y="102"/>
      <point x="728" y="153"/>
      <point x="728" y="205" type="curve" smooth="yes"/>
      <point x="728" y="255"/>
      <point x="691" y="309"/>
      <point x="624" y="309" type="curve" smooth="yes"/>
      <point x="555" y="309"/>
      <point x="518" y="256"/>
      <point x="518" y="205" type="curve" smooth="yes"/>
      <point x="518" y="153"/>
      <point x="555" y="102"/>
    </contour>
    <contour>
      <point x="253" y="102" type="curve" smooth="yes"/>
      <point x="320" y="102"/>
      <point x="357" y="153"/>
      <point x="357" y="205" type="curve" smooth="yes"/>
      <point x="357" y="255"/>
      <point x="320" y="309"/>
      <point x="253" y="309" type="curve" smooth="yes"/>
      <point x="185" y="309"/>
      <point x="147" y="256"/>
      <point x="147" y="205" type="curve" smooth="yes"/>
      <point x="147" y="153"/>
      <point x="185" y="102"/>
    </contour>
    <contour>
      <point x="438" y="840" type="move" name="_top"/>
    </contour>
  </outline>
</glyph>
<glyph name="copyright" format="1">
  <advance width="1583"/>
  <unicode hex="00A9"/>
  <outline>
    <contour>
      <point x="793" y="3" type="curve" smooth="yes"/>
      <point x="481" y="3"/>
      <point x="179" y="197"/>
      <point x="179" y="620" type="curve" smooth="yes"/>
      <point x="179" y="1038"/>
      <point x="470" y="1238"/>
      <point x="793" y="1238" type="curve" smooth="yes"/>
      <point x="1115" y="1238"/>
      <point x="1410" y="1043"/>
      <point x="1410" y="620" type="curve" smooth="yes"/>
      <point x="1410" y="198"/>
      <point x="1092" y="3"/>
    </contour>
    <contour>
      <point x="794" y="-99" type="curve" smooth="yes"/>
      <point x="1164" y="-99"/>
      <point x="1527" y="139"/>
      <point x="1527" y="623" type="curve" smooth="yes"/>
      <point x="1527" y="1101"/>
      <point x="1164" y="1340"/>
      <point x="793" y="1340" type="curve" smooth="yes"/>
      <point x="424" y="1340"/>
      <point x="62" y="1102"/>
      <point x="62" y="620" type="curve" smooth="yes"/>
      <point x="62" y="139"/>
      <point x="424" y="-99"/>
    </contour>
    <contour>
      <point x="804" y="139" type="curve" smooth="yes"/>
      <point x="924" y="139"/>
      <point x="1043" y="179"/>
      <point x="1123" y="224" type="curve"/>
      <point x="1123" y="354" type="line"/>
      <point x="1028" y="290"/>
      <point x="917" y="256"/>
      <point x="814" y="256" type="curve" smooth="yes"/>
      <point x="619" y="256"/>
      <point x="452" y="375"/>
      <point x="452" y="620" type="curve" smooth="yes"/>
      <point x="452" y="865"/>
      <point x="624" y="991"/>
      <point x="823" y="991" type="curve" smooth="yes"/>
      <point x="924" y="991"/>
      <point x="1029" y="959"/>
      <point x="1123" y="897" type="curve"/>
      <point x="1123" y="1023" type="line"/>
      <point x="1048" y="1067"/>
      <point x="933" y="1109"/>
      <point x="815" y="1109" type="curve" smooth="yes"/>
      <point x="524" y="1109"/>
      <point x="308" y="918"/>
      <point x="308" y="623" type="curve" smooth="yes"/>
      <point x="308" y="332"/>
      <point x="528" y="139"/>
    </contour>
  </outline>
</glyph>
<glyph name="guillemotleft" format="1">
  <advance width="828"/>
  <unicode hex="00AB"/>
  <outline>
    <contour>
      <point x="728" y="186" type="curve" smooth="yes"/>
      <point x="747" y="186"/>
      <point x="759" y="199"/>
      <point x="759" y="214" type="curve" smooth="yes"/>
      <point x="759" y="223"/>
      <point x="752" y="233"/>
      <point x="742" y="244" type="curve"/>
      <point x="561" y="505" type="line"/>
      <point x="742" y="766" type="line"/>
      <point x="752" y="778"/>
      <point x="759" y="787"/>
      <point x="759" y="796" type="curve" smooth="yes"/>
      <point x="759" y="811"/>
      <point x="747" y="824"/>
      <point x="728" y="824" type="curve" smooth="yes"/>
      <point x="722" y="824"/>
      <point x="714" y="822"/>
      <point x="706" y="818" type="curve"/>
      <point x="436" y="597" type="line"/>
      <point x="398" y="572"/>
      <point x="379" y="538"/>
      <point x="379" y="505" type="curve" smooth="yes"/>
      <point x="379" y="472"/>
      <point x="397" y="438"/>
      <point x="436" y="414" type="curve"/>
      <point x="706" y="192" type="line"/>
      <point x="714" y="188"/>
      <point x="722" y="186"/>
    </contour>
    <contour>
      <point x="416" y="186" type="curve" smooth="yes"/>
      <point x="434" y="186"/>
      <point x="446" y="199"/>
      <point x="446" y="214" type="curve" smooth="yes"/>
      <point x="446" y="223"/>
      <point x="439" y="233"/>
      <point x="429" y="244" type="curve"/>
      <point x="248" y="505" type="line"/>
      <point x="429" y="766" type="line"/>
      <point x="439" y="778"/>
      <point x="446" y="787"/>
      <point x="446" y="796" type="curve" smooth="yes"/>
      <point x="446" y="811"/>
      <point x="434" y="824"/>
      <point x="416" y="824" type="curve" smooth="yes"/>
      <point x="410" y="824"/>
      <point x="402" y="822"/>
      <point x="393" y="818" type="curve"/>
      <point x="124" y="597" type="line"/>
      <point x="86" y="572"/>
      <point x="66" y="538"/>
      <point x="66" y="505" type="curve" smooth="yes"/>
      <point x="66" y="472"/>
      <point x="85" y="438"/>
      <point x="124" y="414" type="curve"/>
      <point x="393" y="192" type="line"/>
      <point x="402" y="188"/>
      <point x="410" y="186"/>
    </contour>
  </outline>
</glyph>
<glyph name="logicalnot" format="1">
  <advance width="924"/>
  <unicode hex="00AC"/>
  <outline>
    <contour>
      <point x="659" y="415" type="line"/>
      <point x="779" y="415" type="line"/>
      <point x="779" y="824" type="line"/>
      <point x="136" y="824" type="line"/>
      <point x="136" y="704" type="line"/>
      <point x="659" y="704" type="line"/>
    </contour>
  </outline>
</glyph>
<glyph name="uni00AD" format="1">
  <advance width="949"/>
  <unicode hex="00AD"/>
  <outline>
    <contour>
      <point x="153" y="704" type="line"/>
      <point x="795" y="704" type="line"/>
      <point x="796" y="824" type="line"/>
      <point x="153" y="824" type="line"/>
    </contour>
  </outline>
</glyph>
<glyph name="registered" format="1">
  <advance width="1594"/>
  <unicode hex="00AE"/>
  <outline>
    <contour>
      <point x="499" y="162" type="line"/>
      <point x="631" y="162" type="line"/>
      <point x="631" y="571" type="line"/>
      <point x="655" y="571" type="line"/>
      <point x="984" y="162" type="line"/>
      <point x="1147" y="162" type="line"/>
      <point x="797" y="581" type="line"/>
      <point x="973" y="595"/>
      <point x="1095" y="662"/>
      <point x="1095" y="827" type="curve" smooth="yes"/>
      <point x="1095" y="1000"/>
      <point x="948" y="1075"/>
      <point x="730" y="1075" type="curve" smooth="yes"/>
      <point x="499" y="1075" type="line"/>
    </contour>
    <contour>
      <point x="630" y="663" type="line"/>
      <point x="630" y="977" type="line"/>
      <point x="724" y="977" type="line" smooth="yes"/>
      <point x="896" y="977"/>
      <point x="963" y="927"/>
      <point x="963" y="823" type="curve" smooth="yes"/>
      <point x="963" y="693"/>
      <point x="850" y="663"/>
      <point x="700" y="663" type="curve" smooth="yes"/>
    </contour>
    <contour>
      <point x="799" y="1" type="curve" smooth="yes"/>
      <point x="486" y="1"/>
      <point x="184" y="197"/>
      <point x="184" y="620" type="curve" smooth="yes"/>
      <point x="184" y="1038"/>
      <point x="475" y="1240"/>
      <point x="798" y="1240" type="curve" smooth="yes"/>
      <point x="1120" y="1240"/>
      <point x="1415" y="1043"/>
      <point x="1415" y="620" type="curve" smooth="yes"/>
      <point x="1415" y="198"/>
      <point x="1098" y="1"/>
    </contour>
    <contour>
      <point x="799" y="-99" type="curve" smooth="yes"/>
      <point x="1169" y="-99"/>
      <point x="1538" y="139"/>
      <point x="1538" y="623" type="curve" smooth="yes"/>
      <point x="1538" y="1101"/>
      <point x="1169" y="1340"/>
      <point x="798" y="1340" type="curve" smooth="yes"/>
      <point x="429" y="1340"/>
      <point x="62" y="1102"/>
      <point x="62" y="620" type="curve" smooth="yes"/>
      <point x="62" y="139"/>
      <point x="429" y="-99"/>
    </contour>
  </outline>
</glyph>
<glyph name="macron" format="1">
  <advance width="1007"/>
  <unicode hex="00AF"/>
  <outline>
    <component base="minus" xOffset="-86"/>
    <contour>
      <point x="14" y="840" type="move" name="_top"/>
    </contour>
  </outline>
</glyph>
<glyph name="plusminus" format="1">
  <advance width="1005"/>
  <unicode hex="00B1"/>
  <outline>
    <contour>
      <point x="439" y="377" type="line"/>
      <point x="552" y="377" type="line"/>
      <point x="552" y="648" type="line"/>
      <point x="823" y="648" type="line"/>
      <point x="823" y="760" type="line"/>
      <point x="552" y="760" type="line"/>
      <point x="552" y="1031" type="line"/>
      <point x="439" y="1031" type="line"/>
      <point x="439" y="760" type="line"/>
      <point x="169" y="760" type="line"/>
      <point x="169" y="648" type="line"/>
      <point x="439" y="648" type="line"/>
    </contour>
    <contour>
      <point x="169" y="117" type="line"/>
      <point x="823" y="117" type="line"/>
      <point x="823" y="230" type="line"/>
      <point x="169" y="230" type="line"/>
    </contour>
  </outline>
</glyph>
<glyph name="acute" format="1">
  <advance width="465"/>
  <unicode hex="00B4"/>
  <outline>
    <contour>
      <point x="95" y="109" type="curve" smooth="yes"/>
      <point x="104" y="109"/>
      <point x="113" y="114"/>
      <point x="121" y="123" type="curve" smooth="yes"/>
      <point x="366" y="405" type="line" smooth="yes"/>
      <point x="384" y="425"/>
      <point x="392" y="445"/>
      <point x="392" y="463" type="curve" smooth="yes"/>
      <point x="392" y="502"/>
      <point x="357" y="533"/>
      <point x="319" y="533" type="curve" smooth="yes"/>
      <point x="291" y="533"/>
      <point x="262" y="516"/>
      <point x="242" y="477" type="curve" smooth="yes"/>
      <point x="77" y="154" type="line" smooth="yes"/>
      <point x="74" y="146"/>
      <point x="72" y="140"/>
      <point x="72" y="134" type="curve" smooth="yes"/>
      <point x="72" y="119"/>
      <point x="82" y="109"/>
    </contour>
    <contour>
      <point x="232" y="840" type="move" name="_top"/>
    </contour>
  </outline>
</glyph>
<glyph name="paragraph" format="1">
  <advance width="1040"/>
  <unicode hex="00B6"/>
  <outline>
    <contour>
      <point x="532" y="0" type="line"/>
      <point x="666" y="0" type="line"/>
      <point x="666" y="1132" type="line"/>
      <point x="764" y="1132" type="line"/>
      <point x="763" y="0" type="line"/>
      <point x="898" y="0" type="line"/>
      <point x="898" y="1241" type="line"/>
      <point x="589" y="1241" type="line" smooth="yes"/>
      <point x="315" y="1241"/>
      <point x="122" y="1201"/>
      <point x="122" y="942" type="curve" smooth="yes"/>
      <point x="122" y="686"/>
      <point x="303" y="625"/>
      <point x="502" y="621" type="curve" smooth="yes"/>
      <point x="526" y="621"/>
      <point x="525" y="621"/>
      <point x="532" y="621" type="curve"/>
    </contour>
  </outline>
</glyph>
<glyph name="cedilla" format="1">
  <advance width="454"/>
  <unicode hex="00B8"/>
  <outline>
    <contour>
      <point x="337" y="-357" type="curve"/>
      <point x="347" y="-303" type="line"/>
      <point x="279" y="-285"/>
      <point x="218" y="-229"/>
      <point x="218" y="-181" type="curve" smooth="yes"/>
      <point x="218" y="-150"/>
      <point x="245" y="-123"/>
      <point x="316" y="-114" type="curve"/>
      <point x="316" y="0" type="line"/>
      <point x="249" y="0" type="line"/>
      <point x="249" y="-71" type="line"/>
      <point x="149" y="-100"/>
      <point x="113" y="-147"/>
      <point x="113" y="-196" type="curve" smooth="yes"/>
      <point x="113" y="-275"/>
      <point x="221" y="-357"/>
    </contour>
    <contour>
      <point x="230" y="0" type="move" name="_bottom"/>
    </contour>
  </outline>
</glyph>
<glyph name="questiondown" format="1">
  <advance width="946"/>
  <unicode hex="00BF"/>
  <outline>
    <contour>
      <point x="479" y="-430" type="curve" smooth="yes"/>
      <point x="630" y="-430"/>
      <point x="782" y="-352"/>
      <point x="828" y="-313" type="curve"/>
      <point x="763" y="-188" type="line"/>
      <point x="708" y="-229"/>
      <point x="599" y="-283"/>
      <point x="494" y="-283" type="curve" smooth="yes"/>
      <point x="387" y="-283"/>
      <point x="290" y="-223"/>
      <point x="290" y="-94" type="curve" smooth="yes"/>
      <point x="290" y="35"/>
      <point x="363" y="124"/>
      <point x="680" y="479" type="curve"/>
      <point x="542" y="479" type="line"/>
      <point x="255" y="205"/>
      <point x="116" y="73"/>
      <point x="116" y="-103" type="curve" smooth="yes"/>
      <point x="116" y="-313"/>
      <point x="272" y="-430"/>
    </contour>
    <component base="period" xOffset="890" yOffset="844" xScale="-1" yScale="-1"/>
  </outline>
</glyph>
<glyph name="AE" format="1">
  <advance width="1456"/>
  <unicode hex="00C6"/>
  <outline>
    <contour>
      <point x="105" y="0" type="line"/>
      <point x="286" y="0" type="line"/>
      <point x="416" y="297" type="line"/>
      <point x="716" y="297" type="line"/>
      <point x="715" y="111" type="line"/>
      <point x="811" y="111" type="line"/>
      <point x="672" y="1242" type="line"/>
    </contour>
    <contour>
      <point x="459" y="414" type="line"/>
      <point x="672" y="925" type="line"/>
      <point x="724" y="414" type="line"/>
    </contour>
    <component base="E" xOffset="489"/>
    <contour>
      <point x="728" y="1241" type="move" name="top"/>
    </contour>
  </outline>
</glyph>
<glyph name="multiply" format="1">
  <advance width="800"/>
  <unicode hex="00D7"/>
  <outline>
    <contour>
      <point x="245" y="347" type="line"/>
      <point x="407" y="509" type="line"/>
      <point x="569" y="347" type="line"/>
      <point x="653" y="432" type="line"/>
      <point x="492" y="594" type="line"/>
      <point x="654" y="756" type="line"/>
      <point x="569" y="841" type="line"/>
      <point x="407" y="678" type="line"/>
      <point x="245" y="841" type="line"/>
      <point x="160" y="756" type="line"/>
      <point x="322" y="594" type="line"/>
      <point x="160" y="432" type="line"/>
    </contour>
  </outline>
</glyph>
<glyph name="Oslash" format="1">
  <advance width="1533"/>
  <unicode hex="00D8"/>
  <outline>
    <contour>
      <point x="374" y="-89" type="line"/>
      <point x="1255" y="1277" type="line"/>
      <point x="1178" y="1325" type="line"/>
      <point x="297" y="-41" type="line"/>
    </contour>
    <component base="O"/>
    <contour>
      <point x="767" y="1241" type="move" name="top"/>
    </contour>
  </outline>
</glyph>
<glyph name="Thorn" format="1">
  <advance width="1063"/>
  <unicode hex="00DE"/>
  <outline>
    <contour>
      <point x="196" y="0" type="line"/>
      <point x="370" y="0" type="line"/>
      <point x="370" y="289" type="line"/>
      <point x="514" y="289" type="line" smooth="yes"/>
      <point x="762" y="289"/>
      <point x="1003" y="351"/>
      <point x="1003" y="653" type="curve" smooth="yes"/>
      <point x="1003" y="898"/>
      <point x="825" y="1014"/>
      <point x="529" y="1014" type="curve" smooth="yes"/>
      <point x="370" y="1014" type="line"/>
      <point x="370" y="1241" type="line"/>
      <point x="196" y="1241" type="line"/>
    </contour>
    <contour>
      <point x="370" y="406" type="line"/>
      <point x="370" y="887" type="line"/>
      <point x="521" y="887" type="line" smooth="yes"/>
      <point x="752" y="887"/>
      <point x="834" y="785"/>
      <point x="834" y="648" type="curve" smooth="yes"/>
      <point x="834" y="477"/>
      <point x="717" y="406"/>
      <point x="528" y="406" type="curve" smooth="yes"/>
    </contour>
  </outline>
</glyph>
<glyph name="germandbls" format="1">
  <advance width="1103"/>
  <unicode hex="00DF"/>
  <outline>
    <contour>
      <point x="672" y="-34" type="curve" smooth="yes"/>
      <point x="867" y="-34"/>
      <point x="1025" y="50"/>
      <point x="1025" y="284" type="curve" smooth="yes"/>
      <point x="1025" y="407"/>
      <point x="1006" y="525"/>
      <point x="683" y="672" type="curve"/>
      <point x="854" y="709"/>
      <point x="892" y="841"/>
      <point x="892" y="927" type="curve" smooth="yes"/>
      <point x="892" y="1125"/>
      <point x="740" y="1241"/>
      <point x="518" y="1241" type="curve" smooth="yes"/>
      <point x="281" y="1241"/>
      <point x="150" y="1089"/>
      <point x="150" y="923" type="curve" smooth="yes"/>
      <point x="150" y="0" type="line"/>
      <point x="324" y="0" type="line"/>
      <point x="324" y="928" type="line" smooth="yes"/>
      <point x="324" y="1023"/>
      <point x="388" y="1115"/>
      <point x="535" y="1115" type="curve" smooth="yes"/>
      <point x="662" y="1115"/>
      <point x="742" y="1044"/>
      <point x="742" y="924" type="curve" smooth="yes"/>
      <point x="742" y="764"/>
      <point x="613" y="737"/>
      <point x="490" y="737" type="curve"/>
      <point x="490" y="625" type="line"/>
      <point x="706" y="516" type="line"/>
      <point x="841" y="442"/>
      <point x="866" y="377"/>
      <point x="866" y="284" type="curve" smooth="yes"/>
      <point x="866" y="163"/>
      <point x="792" y="106"/>
      <point x="655" y="106" type="curve" smooth="yes"/>
      <point x="542" y="106"/>
      <point x="423" y="161"/>
      <point x="423" y="161" type="curve"/>
      <point x="423" y="21" type="line"/>
      <point x="423" y="21"/>
      <point x="529" y="-34"/>
    </contour>
  </outline>
</glyph>
<glyph name="ae" format="1">
  <advance width="1514"/>
  <unicode hex="00E6"/>
  <outline>
    <contour>
      <point x="365" y="-18" type="curve" smooth="yes"/>
      <point x="485" y="-18"/>
      <point x="594" y="41"/>
      <point x="689" y="132" type="curve"/>
      <point x="768" y="32"/>
      <point x="894" y="-18"/>
      <point x="1042" y="-18" type="curve" smooth="yes"/>
      <point x="1166" y="-18"/>
      <point x="1234" y="14"/>
      <point x="1307" y="57" type="curve"/>
      <point x="1307" y="192" type="line"/>
      <point x="1245" y="156"/>
      <point x="1182" y="111"/>
      <point x="1046" y="111" type="curve" smooth="yes"/>
      <point x="887" y="111"/>
      <point x="777" y="189"/>
      <point x="757" y="388" type="curve"/>
      <point x="1333" y="388" type="line"/>
      <point x="1333" y="421" type="line" smooth="yes"/>
      <point x="1333" y="652"/>
      <point x="1239" y="857"/>
      <point x="975" y="857" type="curve" smooth="yes"/>
      <point x="863" y="857"/>
      <point x="758" y="804"/>
      <point x="694" y="711" type="curve"/>
      <point x="641" y="816"/>
      <point x="544" y="857"/>
      <point x="445" y="857" type="curve" smooth="yes"/>
      <point x="288" y="857"/>
      <point x="164" y="793"/>
      <point x="122" y="769" type="curve"/>
      <point x="169" y="647" type="line"/>
      <point x="223" y="674"/>
      <point x="328" y="725"/>
      <point x="416" y="725" type="curve" smooth="yes"/>
      <point x="498" y="725"/>
      <point x="596" y="703"/>
      <point x="596" y="546" type="curve" smooth="yes"/>
      <point x="596" y="508" type="line"/>
      <point x="436" y="474" type="line"/>
      <point x="159" y="411"/>
      <point x="118" y="288"/>
      <point x="118" y="203" type="curve" smooth="yes"/>
      <point x="118" y="68"/>
      <point x="229" y="-18"/>
    </contour>
    <contour>
      <point x="397" y="100" type="curve" smooth="yes"/>
      <point x="325" y="100"/>
      <point x="283" y="151"/>
      <point x="283" y="217" type="curve" smooth="yes"/>
      <point x="283" y="273"/>
      <point x="306" y="335"/>
      <point x="432" y="374" type="curve" smooth="yes"/>
      <point x="438" y="377"/>
      <point x="590" y="415"/>
      <point x="596" y="417" type="curve"/>
      <point x="598" y="339"/>
      <point x="613" y="269"/>
      <point x="640" y="210" type="curve"/>
      <point x="586" y="162"/>
      <point x="481" y="100"/>
    </contour>
    <contour>
      <point x="766" y="498" type="line"/>
      <point x="778" y="570"/>
      <point x="811" y="731"/>
      <point x="994" y="731" type="curve" smooth="yes"/>
      <point x="1127" y="731"/>
      <point x="1184" y="627"/>
      <point x="1194" y="498" type="curve"/>
    </contour>
    <contour>
      <point x="757" y="840" type="move" name="top"/>
    </contour>
  </outline>
</glyph>
<glyph name="eth" format="1">
  <advance width="1000"/>
  <unicode hex="00F0"/>
  <outline>
    <contour>
      <point x="493" y="-18" type="curve" smooth="yes"/>
      <point x="742" y="-18"/>
      <point x="916" y="161"/>
      <point x="916" y="388" type="curve" smooth="yes"/>
      <point x="916" y="552"/>
      <point x="852" y="662"/>
      <point x="734" y="832" type="curve" smooth="yes"/>
      <point x="660" y="940"/>
      <point x="409" y="1241"/>
      <point x="409" y="1241" type="curve"/>
      <point x="229" y="1241" type="line"/>
      <point x="624" y="738" type="line"/>
      <point x="596" y="755"/>
      <point x="534" y="779"/>
      <point x="460" y="779" type="curve" smooth="yes"/>
      <point x="264" y="779"/>
      <point x="70" y="615"/>
      <point x="70" y="382" type="curve" smooth="yes"/>
      <point x="70" y="150"/>
      <point x="258" y="-18"/>
    </contour>
    <contour>
      <point x="500" y="113" type="curve" smooth="yes"/>
      <point x="343" y="113"/>
      <point x="228" y="238"/>
      <point x="228" y="380" type="curve" smooth="yes"/>
      <point x="228" y="530"/>
      <point x="340" y="649"/>
      <point x="493" y="649" type="curve" smooth="yes"/>
      <point x="661" y="649"/>
      <point x="753" y="514"/>
      <point x="753" y="374" type="curve" smooth="yes"/>
      <point x="753" y="235"/>
      <point x="657" y="113"/>
    </contour>
    <contour>
      <point x="279" y="878" type="line"/>
      <point x="731" y="1190" type="line"/>
      <point x="680" y="1254" type="line"/>
      <point x="228" y="942" type="line"/>
    </contour>
  </outline>
</glyph>
<glyph name="oslash" format="1">
  <advance width="1146"/>
  <unicode hex="00F8"/>
  <outline>
    <contour>
      <point x="268" y="-81" type="line"/>
      <point x="210" y="-42" type="line"/>
      <point x="868" y="920" type="line"/>
      <point x="926" y="880" type="line"/>
    </contour>
    <component base="o"/>
    <contour>
      <point x="573" y="840" type="move" name="top"/>
    </contour>
  </outline>
</glyph>
<glyph name="thorn" format="1">
  <advance width="1078"/>
  <unicode hex="00FE"/>
  <outline>
    <contour>
      <point x="154" y="-403" type="line"/>
      <point x="321" y="-388" type="line"/>
      <point x="321" y="27" type="line"/>
      <point x="321" y="27"/>
      <point x="409" y="-15"/>
      <point x="556" y="-15" type="curve" smooth="yes"/>
      <point x="822" y="-15"/>
      <point x="978" y="172"/>
      <point x="978" y="421" type="curve" smooth="yes"/>
      <point x="978" y="667"/>
      <point x="819" y="857"/>
      <point x="583" y="857" type="curve" smooth="yes"/>
      <point x="471" y="857"/>
      <point x="382" y="822"/>
      <point x="321" y="768" type="curve"/>
      <point x="321" y="1241" type="line"/>
      <point x="154" y="1241" type="line"/>
    </contour>
    <contour>
      <point x="526" y="110" type="curve" smooth="yes"/>
      <point x="417" y="110"/>
      <point x="329" y="145"/>
      <point x="321" y="146" type="curve"/>
      <point x="321" y="648" type="line"/>
      <point x="343" y="663"/>
      <point x="433" y="726"/>
      <point x="538" y="726" type="curve" smooth="yes"/>
      <point x="712" y="726"/>
      <point x="813" y="615"/>
      <point x="813" y="423" type="curve" smooth="yes"/>
      <point x="813" y="250"/>
      <point x="727" y="110"/>
    </contour>
  </outline>
</glyph>
<glyph name="dotlessi" format="1">
  <advance width="519"/>
  <unicode hex="0131"/>
  <outline>
    <contour>
      <point x="178" y="0" type="line"/>
      <point x="345" y="0" type="line"/>
      <point x="345" y="838" type="line"/>
      <point x="178" y="838" type="line"/>
    </contour>
    <contour>
      <point x="260" y="840" type="move" name="top"/>
    </contour>
    <contour>
      <point x="467" y="10" type="move" name="ogonek"/>
    </contour>
  </outline>
</glyph>
<glyph name="kgreenlandic" format="1">
  <advance width="937"/>
  <unicode hex="0138"/>
  <outline>
    <contour>
      <point x="154" y="-1" type="line"/>
      <point x="321" y="-1" type="line"/>
      <point x="321" y="387" type="line"/>
      <point x="728" y="0" type="line"/>
      <point x="941" y="0" type="line"/>
      <point x="494" y="427" type="line"/>
      <point x="884" y="837" type="line"/>
      <point x="677" y="837" type="line"/>
      <point x="321" y="459" type="line"/>
      <point x="321" y="837" type="line"/>
      <point x="154" y="837" type="line"/>
    </contour>
  </outline>
</glyph>
<glyph name="OE" format="1">
  <advance width="2039"/>
  <unicode hex="0152"/>
  <outline>
    <contour>
      <point x="754" y="-34" type="curve" smooth="yes"/>
      <point x="950" y="-34"/>
      <point x="1133" y="41"/>
      <point x="1248" y="191" type="curve"/>
      <point x="1248" y="0" type="line"/>
      <point x="1979" y="0" type="line"/>
      <point x="1979" y="148" type="line"/>
      <point x="1418" y="148" type="line"/>
      <point x="1418" y="568" type="line"/>
      <point x="1905" y="568" type="line"/>
      <point x="1905" y="713" type="line"/>
      <point x="1420" y="713" type="line"/>
      <point x="1420" y="1095" type="line"/>
      <point x="1969" y="1095" type="line"/>
      <point x="1969" y="1241" type="line"/>
      <point x="1248" y="1241" type="line"/>
      <point x="1248" y="1050" type="line"/>
      <point x="1133" y="1200"/>
      <point x="950" y="1275"/>
      <point x="753" y="1275" type="curve" smooth="yes"/>
      <point x="417" y="1275"/>
      <point x="93" y="1058"/>
      <point x="93" y="620" type="curve" smooth="yes"/>
      <point x="93" y="183"/>
      <point x="417" y="-34"/>
    </contour>
    <contour>
      <point x="758" y="113" type="curve" smooth="yes"/>
      <point x="510" y="113"/>
      <point x="271" y="276"/>
      <point x="271" y="619" type="curve" smooth="yes"/>
      <point x="271" y="964"/>
      <point x="500" y="1128"/>
      <point x="758" y="1128" type="curve" smooth="yes"/>
      <point x="1015" y="1128"/>
      <point x="1248" y="964"/>
      <point x="1248" y="618" type="curve" smooth="yes"/>
      <point x="1248" y="277"/>
      <point x="995" y="113"/>
    </contour>
    <contour>
      <point x="1019" y="1241" type="move" name="top"/>
    </contour>
  </outline>
</glyph>
<glyph name="oe" format="1">
  <advance width="1722"/>
  <unicode hex="0153"/>
  <outline>
    <contour>
      <point x="1025" y="498" type="line"/>
      <point x="1037" y="570"/>
      <point x="1095" y="731"/>
      <point x="1278" y="731" type="curve" smooth="yes"/>
      <point x="1412" y="731"/>
      <point x="1484" y="627"/>
      <point x="1494" y="498" type="curve"/>
    </contour>
    <contour>
      <point x="555" y="-18" type="curve" smooth="yes"/>
      <point x="715" y="-18"/>
      <point x="856" y="52"/>
      <point x="934" y="177" type="curve"/>
      <point x="1013" y="47"/>
      <point x="1158" y="-18"/>
      <point x="1327" y="-18" type="curve" smooth="yes"/>
      <point x="1451" y="-18"/>
      <point x="1535" y="14"/>
      <point x="1608" y="57" type="curve"/>
      <point x="1608" y="192" type="line"/>
      <point x="1546" y="156"/>
      <point x="1466" y="111"/>
      <point x="1331" y="111" type="curve" smooth="yes"/>
      <point x="1172" y="111"/>
      <point x="1036" y="189"/>
      <point x="1016" y="388" type="curve"/>
      <point x="1634" y="388" type="line"/>
      <point x="1634" y="421" type="line" smooth="yes"/>
      <point x="1634" y="652"/>
      <point x="1523" y="857"/>
      <point x="1260" y="857" type="curve" smooth="yes"/>
      <point x="1115" y="857"/>
      <point x="994" y="783"/>
      <point x="927" y="666" type="curve"/>
      <point x="846" y="789"/>
      <point x="706" y="857"/>
      <point x="557" y="857" type="curve" smooth="yes"/>
      <point x="313" y="857"/>
      <point x="100" y="692"/>
      <point x="100" y="417" type="curve" smooth="yes"/>
      <point x="100" y="144"/>
      <point x="312" y="-18"/>
    </contour>
    <contour>
      <point x="558" y="113" type="curve" smooth="yes"/>
      <point x="360" y="113"/>
      <point x="259" y="253"/>
      <point x="259" y="418" type="curve" smooth="yes"/>
      <point x="259" y="571"/>
      <point x="362" y="725"/>
      <point x="558" y="725" type="curve" smooth="yes"/>
      <point x="754" y="725"/>
      <point x="855" y="571"/>
      <point x="855" y="417" type="curve" smooth="yes"/>
      <point x="855" y="264"/>
      <point x="757" y="113"/>
    </contour>
    <contour>
      <point x="861" y="840" type="move" name="top"/>
    </contour>
  </outline>
</glyph>
<glyph name="florin" format="1">
  <advance width="928"/>
  <unicode hex="0192"/>
  <outline>
    <contour>
      <point x="220" y="-319" type="curve" smooth="yes"/>
      <point x="395" y="-319"/>
      <point x="488" y="-198"/>
      <point x="506" y="0" type="curve" smooth="yes"/>
      <point x="560" y="583" type="line"/>
      <point x="793" y="583" type="line"/>
      <point x="798" y="691" type="line"/>
      <point x="571" y="691" type="line"/>
      <point x="589" y="904" type="line" smooth="yes"/>
      <point x="602" y="1050"/>
      <point x="662" y="1093"/>
      <point x="746" y="1093" type="curve" smooth="yes"/>
      <point x="787" y="1093"/>
      <point x="809" y="1086"/>
      <point x="851" y="1073" type="curve"/>
      <point x="862" y="1198" type="line"/>
      <point x="823" y="1209"/>
      <point x="779" y="1224"/>
      <point x="720" y="1224" type="curve" smooth="yes"/>
      <point x="531" y="1224"/>
      <point x="439" y="1100"/>
      <point x="422" y="904" type="curve" smooth="yes"/>
      <point x="403" y="691" type="line"/>
      <point x="204" y="691" type="line"/>
      <point x="199" y="583" type="line"/>
      <point x="393" y="583" type="line"/>
      <point x="338" y="-5" type="line" smooth="yes"/>
      <point x="327" y="-148"/>
      <point x="272" y="-190"/>
      <point x="191" y="-190" type="curve" smooth="yes"/>
      <point x="144" y="-190"/>
      <point x="114" y="-176"/>
      <point x="77" y="-165" type="curve"/>
      <point x="66" y="-287" type="line"/>
      <point x="127" y="-310"/>
      <point x="168" y="-319"/>
    </contour>
  </outline>
</glyph>
<glyph name="uni0237" format="1">
  <advance width="542"/>
  <unicode hex="0237"/>
  <outline>
    <contour>
      <point x="46" y="-331" type="line"/>
      <point x="332" y="-321"/>
      <point x="373" y="-173"/>
      <point x="373" y="-63" type="curve" smooth="yes"/>
      <point x="373" y="838" type="line"/>
      <point x="206" y="838" type="line"/>
      <point x="206" y="-52" type="line" smooth="yes"/>
      <point x="206" y="-153"/>
      <point x="134" y="-182"/>
      <point x="45" y="-192" type="curve" smooth="yes"/>
      <point x="39" y="-193"/>
      <point x="22" y="-196"/>
      <point x="16" y="-196" type="curve"/>
    </contour>
    <contour>
      <point x="272" y="840" type="move" name="top"/>
    </contour>
  </outline>
</glyph>
<glyph name="circumflex" format="1">
  <advance width="773"/>
  <unicode hex="02C6"/>
  <outline>
    <contour>
      <point x="161" y="131" type="curve" smooth="yes"/>
      <point x="170" y="131"/>
      <point x="179" y="136"/>
      <point x="187" y="145" type="curve" smooth="yes"/>
      <point x="386" y="373" type="line"/>
      <point x="584" y="145" type="line" smooth="yes"/>
      <point x="592" y="136"/>
      <point x="601" y="131"/>
      <point x="610" y="131" type="curve" smooth="yes"/>
      <point x="623" y="131"/>
      <point x="633" y="141"/>
      <point x="633" y="156" type="curve" smooth="yes"/>
      <point x="633" y="162"/>
      <point x="631" y="168"/>
      <point x="628" y="176" type="curve" smooth="yes"/>
      <point x="464" y="499" type="line" smooth="yes"/>
      <point x="447" y="532"/>
      <point x="417" y="555"/>
      <point x="386" y="555" type="curve" smooth="yes"/>
      <point x="354" y="555"/>
      <point x="325" y="533"/>
      <point x="308" y="499" type="curve" smooth="yes"/>
      <point x="143" y="176" type="line" smooth="yes"/>
      <point x="140" y="168"/>
      <point x="138" y="162"/>
      <point x="138" y="156" type="curve" smooth="yes"/>
      <point x="138" y="141"/>
      <point x="149" y="131"/>
    </contour>
    <contour>
      <point x="385" y="840" type="move" name="_top"/>
    </contour>
  </outline>
</glyph>
<glyph name="caron" format="1">
  <advance width="772"/>
  <unicode hex="02C7"/>
  <outline>
    <contour>
      <point x="386" y="139" type="curve" smooth="yes"/>
      <point x="417" y="139"/>
      <point x="446" y="160"/>
      <point x="464" y="195" type="curve" smooth="yes"/>
      <point x="628" y="518" type="line" smooth="yes"/>
      <point x="631" y="525"/>
      <point x="633" y="531"/>
      <point x="633" y="537" type="curve" smooth="yes"/>
      <point x="633" y="552"/>
      <point x="623" y="562"/>
      <point x="610" y="562" type="curve" smooth="yes"/>
      <point x="601" y="562"/>
      <point x="592" y="558"/>
      <point x="584" y="548" type="curve" smooth="yes"/>
      <point x="386" y="320" type="line"/>
      <point x="187" y="548" type="line" smooth="yes"/>
      <point x="179" y="558"/>
      <point x="170" y="562"/>
      <point x="161" y="562" type="curve" smooth="yes"/>
      <point x="149" y="562"/>
      <point x="139" y="552"/>
      <point x="139" y="537" type="curve" smooth="yes"/>
      <point x="139" y="531"/>
      <point x="140" y="525"/>
      <point x="143" y="518" type="curve" smooth="yes"/>
      <point x="308" y="195" type="line" smooth="yes"/>
      <point x="324" y="161"/>
      <point x="355" y="139"/>
    </contour>
    <contour>
      <point x="386" y="840" type="move" name="_top"/>
    </contour>
  </outline>
</glyph>
<glyph name="breve" format="1">
  <advance width="747"/>
  <unicode hex="02D8"/>
  <outline>
    <contour>
      <point x="373" y="141" type="curve" smooth="yes"/>
      <point x="164" y="141"/>
      <point x="142" y="331"/>
      <point x="142" y="331" type="curve"/>
      <point x="231" y="351" type="line"/>
      <point x="231" y="351"/>
      <point x="255" y="238"/>
      <point x="373" y="238" type="curve" smooth="yes"/>
      <point x="491" y="238"/>
      <point x="515" y="351"/>
      <point x="515" y="351" type="curve"/>
      <point x="603" y="331" type="line"/>
      <point x="603" y="331"/>
      <point x="581" y="141"/>
    </contour>
    <contour>
      <point x="373" y="840" type="move" name="_top"/>
    </contour>
  </outline>
</glyph>
<glyph name="dotaccent" format="1">
  <advance width="515"/>
  <unicode hex="02D9"/>
  <outline>
    <component base="period" xOffset="25" yOffset="182"/>
    <contour>
      <point x="125" y="840" type="move" name="_top"/>
    </contour>
  </outline>
</glyph>
<glyph name="ring" format="1">
  <advance width="739"/>
  <unicode hex="02DA"/>
  <outline>
    <contour>
      <point x="368" y="173" type="curve" smooth="yes"/>
      <point x="253" y="173"/>
      <point x="146" y="250"/>
      <point x="146" y="386" type="curve" smooth="yes"/>
      <point x="146" y="523"/>
      <point x="253" y="602"/>
      <point x="369" y="602" type="curve" smooth="yes"/>
      <point x="479" y="602"/>
      <point x="593" y="523"/>
      <point x="593" y="386" type="curve" smooth="yes"/>
      <point x="593" y="251"/>
      <point x="485" y="173"/>
    </contour>
    <contour>
      <point x="368" y="252" type="curve" smooth="yes"/>
      <point x="456" y="252"/>
      <point x="500" y="318"/>
      <point x="500" y="385" type="curve" smooth="yes"/>
      <point x="500" y="453"/>
      <point x="454" y="521"/>
      <point x="368" y="521" type="curve" smooth="yes"/>
      <point x="282" y="521"/>
      <point x="236" y="453"/>
      <point x="236" y="386" type="curve" smooth="yes"/>
      <point x="236" y="313"/>
      <point x="280" y="252"/>
    </contour>
    <contour>
      <point x="369" y="840" type="move" name="_top"/>
    </contour>
  </outline>
</glyph>
<glyph name="ogonek" format="1">
  <advance width="451"/>
  <unicode hex="02DB"/>
  <outline>
    <contour>
      <point x="264" y="-387" type="curve"/>
      <point x="333" y="-329" type="line"/>
      <point x="269" y="-274"/>
      <point x="244" y="-224"/>
      <point x="244" y="-177" type="curve" smooth="yes"/>
      <point x="244" y="-115"/>
      <point x="287" y="-59"/>
      <point x="333" y="0" type="curve"/>
      <point x="274" y="0" type="line"/>
      <point x="167" y="-90"/>
      <point x="120" y="-168"/>
      <point x="120" y="-232" type="curve" smooth="yes"/>
      <point x="120" y="-304"/>
      <point x="180" y="-355"/>
    </contour>
    <contour>
      <point x="333" y="10" type="move" name="_ogonek"/>
    </contour>
  </outline>
</glyph>
<glyph name="tilde" format="1">
  <advance width="927"/>
  <unicode hex="02DC"/>
  <outline>
    <contour>
      <point x="610" y="164" type="curve" smooth="yes"/>
      <point x="712" y="164"/>
      <point x="774" y="214"/>
      <point x="775" y="378" type="curve"/>
      <point x="669" y="378" type="line"/>
      <point x="666" y="307"/>
      <point x="651" y="285"/>
      <point x="608" y="285" type="curve" smooth="yes"/>
      <point x="547" y="285"/>
      <point x="419" y="392"/>
      <point x="305" y="392" type="curve" smooth="yes"/>
      <point x="195" y="392"/>
      <point x="141" y="344"/>
      <point x="140" y="178" type="curve"/>
      <point x="246" y="178" type="line"/>
      <point x="249" y="243"/>
      <point x="265" y="269"/>
      <point x="306" y="269" type="curve" smooth="yes"/>
      <point x="389" y="269"/>
      <point x="477" y="164"/>
    </contour>
    <contour>
      <point x="457.5" y="840" type="move" name="_top"/>
    </contour>
  </outline>
</glyph>
<glyph name="hungarumlaut" format="1">
  <advance width="699"/>
  <unicode hex="02DD"/>
  <outline>
    <component base="acute" xOffset="18"/>
    <component base="acute" xOffset="253"/>
    <contour>
      <point x="368" y="840" type="move" name="_top"/>
    </contour>
  </outline>
</glyph>
<glyph name="uni0311" format="1">
  <advance width="747"/>
  <unicode hex="0311"/>
  <outline>
    <contour>
      <point x="231" y="141" type="curve"/>
      <point x="142" y="161" type="line"/>
      <point x="142" y="161"/>
      <point x="164" y="351"/>
      <point x="373" y="351" type="curve" smooth="yes"/>
      <point x="581" y="351"/>
      <point x="603" y="161"/>
      <point x="603" y="161" type="curve"/>
      <point x="515" y="141" type="line"/>
      <point x="515" y="141"/>
      <point x="491" y="254"/>
      <point x="373" y="254" type="curve" smooth="yes"/>
      <point x="255" y="254"/>
      <point x="231" y="141"/>
    </contour>
  </outline>
</glyph>
<glyph name="uni0326" format="1">
  <advance width="463"/>
  <unicode hex="0326"/>
  <outline>
    <contour>
      <point x="189" y="-441" type="curve" smooth="yes"/>
      <point x="217" y="-441"/>
      <point x="246" y="-425"/>
      <point x="265" y="-385" type="curve" smooth="yes"/>
      <point x="377" y="-110" type="line" smooth="yes"/>
      <point x="380" y="-104"/>
      <point x="381" y="-99"/>
      <point x="381" y="-94" type="curve" smooth="yes"/>
      <point x="381" y="-78"/>
      <point x="370" y="-69"/>
      <point x="357" y="-69" type="curve" smooth="yes"/>
      <point x="349" y="-69"/>
      <point x="339" y="-73"/>
      <point x="331" y="-83" type="curve" smooth="yes"/>
      <point x="139" y="-318" type="line"/>
      <point x="123" y="-337"/>
      <point x="116" y="-356"/>
      <point x="116" y="-373" type="curve" smooth="yes"/>
      <point x="116" y="-412"/>
      <point x="152" y="-441"/>
    </contour>
    <contour>
      <point x="249" y="0" type="move" name="_bottom"/>
    </contour>
  </outline>
</glyph>
<glyph name="mu" format="1">
  <advance width="1112"/>
  <unicode hex="03BC"/>
  <outline>
    <contour>
      <point x="142" y="-248" type="line"/>
      <point x="310" y="-248" type="line"/>
      <point x="310" y="275" type="line"/>
      <point x="142" y="299" type="line"/>
    </contour>
    <component base="u" xOffset="3"/>
  </outline>
</glyph>
<glyph name="dagger" format="1">
  <advance width="954"/>
  <unicode hex="2020"/>
  <outline>
    <contour>
      <point x="420" y="0" type="line"/>
      <point x="533" y="0" type="line"/>
      <point x="533" y="680" type="line"/>
      <point x="803" y="680" type="line"/>
      <point x="803" y="792" type="line"/>
      <point x="532" y="792" type="line"/>
      <point x="532" y="1063" type="line"/>
      <point x="420" y="1063" type="line"/>
      <point x="420" y="792" type="line"/>
      <point x="150" y="792" type="line"/>
      <point x="150" y="680" type="line"/>
      <point x="420" y="680" type="line"/>
    </contour>
  </outline>
</glyph>
<glyph name="daggerdbl" format="1">
  <advance width="957"/>
  <unicode hex="2021"/>
  <outline>
    <contour>
      <point x="421" y="0" type="line"/>
      <point x="534" y="0" type="line"/>
      <point x="534" y="253" type="line"/>
      <point x="805" y="253" type="line"/>
      <point x="805" y="366" type="line"/>
      <point x="534" y="366" type="line"/>
      <point x="534" y="680" type="line"/>
      <point x="805" y="680" type="line"/>
      <point x="805" y="792" type="line"/>
      <point x="534" y="792" type="line"/>
      <point x="534" y="1063" type="line"/>
      <point x="421" y="1063" type="line"/>
      <point x="421" y="792" type="line"/>
      <point x="151" y="792" type="line"/>
      <point x="151" y="680" type="line"/>
      <point x="421" y="680" type="line"/>
      <point x="421" y="366" type="line"/>
      <point x="151" y="366" type="line"/>
      <point x="151" y="253" type="line"/>
      <point x="421" y="253" type="line"/>
    </contour>
  </outline>
</glyph>
<glyph name="guilsinglleft" format="1">
  <advance width="513"/>
  <unicode hex="2039"/>
  <outline>
    <contour>
      <point x="419" y="186" type="curve" smooth="yes"/>
      <point x="437" y="186"/>
      <point x="449" y="199"/>
      <point x="449" y="214" type="curve" smooth="yes"/>
      <point x="449" y="223"/>
      <point x="443" y="233"/>
      <point x="432" y="244" type="curve"/>
      <point x="251" y="505" type="line"/>
      <point x="432" y="766" type="line"/>
      <point x="443" y="778"/>
      <point x="449" y="787"/>
      <point x="449" y="796" type="curve" smooth="yes"/>
      <point x="449" y="811"/>
      <point x="437" y="824"/>
      <point x="419" y="824" type="curve" smooth="yes"/>
      <point x="413" y="824"/>
      <point x="405" y="822"/>
      <point x="396" y="818" type="curve"/>
      <point x="127" y="597" type="line"/>
      <point x="89" y="572"/>
      <point x="69" y="538"/>
      <point x="69" y="505" type="curve" smooth="yes"/>
      <point x="69" y="472"/>
      <point x="88" y="438"/>
      <point x="127" y="414" type="curve"/>
      <point x="396" y="192" type="line"/>
      <point x="405" y="188"/>
      <point x="413" y="186"/>
    </contour>
  </outline>
</glyph>
<glyph name="guilsinglright" format="1">
  <advance width="526"/>
  <unicode hex="203A"/>
  <outline>
    <contour>
      <point x="81" y="186" type="curve" smooth="yes"/>
      <point x="87" y="186"/>
      <point x="95" y="187"/>
      <point x="104" y="192" type="curve"/>
      <point x="373" y="413" type="line"/>
      <point x="411" y="438"/>
      <point x="431" y="472"/>
      <point x="431" y="505" type="curve" smooth="yes"/>
      <point x="431" y="538"/>
      <point x="412" y="571"/>
      <point x="373" y="596" type="curve"/>
      <point x="104" y="818" type="line"/>
      <point x="95" y="822"/>
      <point x="87" y="824"/>
      <point x="81" y="824" type="curve" smooth="yes"/>
      <point x="63" y="824"/>
      <point x="51" y="811"/>
      <point x="51" y="796" type="curve" smooth="yes"/>
      <point x="51" y="787"/>
      <point x="58" y="777"/>
      <point x="68" y="766" type="curve"/>
      <point x="249" y="505" type="line"/>
      <point x="68" y="244" type="line"/>
      <point x="58" y="232"/>
      <point x="51" y="223"/>
      <point x="51" y="213" type="curve" smooth="yes"/>
      <point x="51" y="198"/>
      <point x="63" y="186"/>
    </contour>
  </outline>
</glyph>
<glyph name="Euro" format="1">
  <advance width="1296"/>
  <unicode hex="20AC"/>
  <outline>
    <contour>
      <point x="842" y="-33" type="curve" smooth="yes"/>
      <point x="991" y="-33"/>
      <point x="1135" y="15"/>
      <point x="1224" y="60" type="curve"/>
      <point x="1224" y="219" type="line"/>
      <point x="1104" y="150"/>
      <point x="973" y="113"/>
      <point x="850" y="113" type="curve" smooth="yes"/>
      <point x="638" y="113"/>
      <point x="454" y="222"/>
      <point x="383" y="433" type="curve"/>
      <point x="787" y="433" type="line"/>
      <point x="787" y="540" type="line"/>
      <point x="356" y="540" type="line"/>
      <point x="352" y="571"/>
      <point x="350" y="604"/>
      <point x="350" y="639" type="curve" smooth="yes"/>
      <point x="350" y="651"/>
      <point x="350" y="662"/>
      <point x="350" y="674" type="curve"/>
      <point x="787" y="674" type="line"/>
      <point x="787" y="781" type="line"/>
      <point x="367" y="781" type="line"/>
      <point x="422" y="1020"/>
      <point x="621" y="1127"/>
      <point x="839" y="1127" type="curve" smooth="yes"/>
      <point x="970" y="1127"/>
      <point x="1107" y="1088"/>
      <point x="1224" y="1017" type="curve"/>
      <point x="1224" y="1170" type="line"/>
      <point x="1132" y="1223"/>
      <point x="982" y="1275"/>
      <point x="826" y="1275" type="curve" smooth="yes"/>
      <point x="518" y="1275"/>
      <point x="249" y="1093"/>
      <point x="187" y="781" type="curve"/>
      <point x="69" y="781" type="line"/>
      <point x="69" y="674" type="line"/>
      <point x="174" y="674" type="line"/>
      <point x="173" y="662"/>
      <point x="173" y="651"/>
      <point x="173" y="639" type="curve" smooth="yes"/>
      <point x="173" y="605"/>
      <point x="175" y="572"/>
      <point x="179" y="540" type="curve"/>
      <point x="69" y="540" type="line"/>
      <point x="69" y="433" type="line"/>
      <point x="200" y="433" type="line"/>
      <point x="283" y="140"/>
      <point x="541" y="-33"/>
    </contour>
  </outline>
</glyph>
<glyph name="minus" format="1">
  <advance width="961"/>
  <unicode hex="2212"/>
  <outline>
    <contour>
      <point x="153" y="535" type="line"/>
      <point x="807" y="535" type="line"/>
      <point x="807" y="648" type="line"/>
      <point x="153" y="648" type="line"/>
    </contour>
  </outline>
</glyph>
<glyph name="integral" format="1">
  <advance width="928"/>
  <unicode hex="222B"/>
  <outline>
    <contour>
      <point x="222" y="-319" type="curve" smooth="yes"/>
      <point x="396" y="-319"/>
      <point x="489" y="-198"/>
      <point x="507" y="0" type="curve" smooth="yes"/>
      <point x="591" y="904" type="line" smooth="yes"/>
      <point x="604" y="1050"/>
      <point x="663" y="1093"/>
      <point x="748" y="1093" type="curve" smooth="yes"/>
      <point x="788" y="1093"/>
      <point x="810" y="1086"/>
      <point x="852" y="1073" type="curve"/>
      <point x="864" y="1198" type="line"/>
      <point x="825" y="1209"/>
      <point x="781" y="1224"/>
      <point x="721" y="1224" type="curve" smooth="yes"/>
      <point x="532" y="1224"/>
      <point x="441" y="1100"/>
      <point x="423" y="904" type="curve" smooth="yes"/>
      <point x="340" y="-5" type="line" smooth="yes"/>
      <point x="328" y="-148"/>
      <point x="273" y="-190"/>
      <point x="192" y="-190" type="curve" smooth="yes"/>
      <point x="145" y="-190"/>
      <point x="116" y="-176"/>
      <point x="79" y="-165" type="curve"/>
      <point x="67" y="-287" type="line"/>
      <point x="129" y="-310"/>
      <point x="169" y="-319"/>
    </contour>
  </outline>
</glyph>
<glyph name="approxequal" format="1">
  <advance width="990"/>
  <unicode hex="2248"/>
  <outline>
    <contour>
      <point x="693" y="296" type="curve" smooth="yes"/>
      <point x="803" y="296"/>
      <point x="871" y="356"/>
      <point x="872" y="523" type="curve"/>
      <point x="766" y="523" type="line"/>
      <point x="763" y="459"/>
      <point x="736" y="419"/>
      <point x="688" y="419" type="curve" smooth="yes"/>
      <point x="599" y="419"/>
      <point x="438" y="537"/>
      <point x="305" y="537" type="curve" smooth="yes"/>
      <point x="202" y="537"/>
      <point x="120" y="474"/>
      <point x="119" y="310" type="curve"/>
      <point x="225" y="310" type="line"/>
      <point x="228" y="383"/>
      <point x="259" y="416"/>
      <point x="314" y="416" type="curve" smooth="yes"/>
      <point x="393" y="416"/>
      <point x="578" y="296"/>
    </contour>
    <contour>
      <point x="693" y="613" type="curve" smooth="yes"/>
      <point x="803" y="613"/>
      <point x="871" y="672"/>
      <point x="872" y="838" type="curve"/>
      <point x="766" y="838" type="line"/>
      <point x="763" y="775"/>
      <point x="736" y="735"/>
      <point x="688" y="735" type="curve" smooth="yes"/>
      <point x="599" y="735"/>
      <point x="438" y="852"/>
      <point x="305" y="852" type="curve" smooth="yes"/>
      <point x="202" y="852"/>
      <point x="120" y="790"/>
      <point x="119" y="626" type="curve"/>
      <point x="225" y="626" type="line"/>
      <point x="228" y="699"/>
      <point x="259" y="733"/>
      <point x="314" y="733" type="curve" smooth="yes"/>
      <point x="393" y="733"/>
      <point x="578" y="613"/>
    </contour>
  </outline>
</glyph>
<glyph name="lessequal" format="1">
  <advance width="1014"/>
  <unicode hex="2264"/>
  <outline>
    <contour>
      <point x="135" y="0" type="line"/>
      <point x="925" y="0" type="line"/>
      <point x="925" y="104" type="line"/>
      <point x="135" y="104" type="line"/>
    </contour>
    <contour>
      <point x="925" y="177" type="line"/>
      <point x="925" y="330" type="line"/>
      <point x="428" y="520" type="line"/>
      <point x="925" y="727" type="line"/>
      <point x="925" y="876" type="line"/>
      <point x="121" y="516" type="line"/>
    </contour>
  </outline>
</glyph>
<glyph name="greaterequal" format="1">
  <advance width="1014"/>
  <unicode hex="2265"/>
  <outline>
    <contour>
      <point x="130" y="0" type="line"/>
      <point x="921" y="0" type="line"/>
      <point x="921" y="104" type="line"/>
      <point x="130" y="104" type="line"/>
    </contour>
    <contour>
      <point x="127" y="876" type="line"/>
      <point x="127" y="729" type="line"/>
      <point x="625" y="538" type="line"/>
      <point x="127" y="332" type="line"/>
      <point x="127" y="177" type="line"/>
      <point x="932" y="541" type="line"/>
    </contour>
  </outline>
</glyph>
<glyph name="lozenge" format="1">
  <advance width="925"/>
  <unicode hex="25CA"/>
  <outline>
    <contour>
      <point x="466" y="-26" type="line"/>
      <point x="802" y="648" type="line"/>
      <point x="458" y="1321" type="line"/>
      <point x="122" y="648" type="line"/>
    </contour>
    <contour>
      <point x="466" y="209" type="line"/>
      <point x="255" y="648" type="line"/>
      <point x="458" y="1087" type="line"/>
      <point x="668" y="648" type="line"/>
    </contour>
  </outline>
</glyph>
<glyph name="uniFB00" format="1">
  <advance width="1240"/>
  <outline>
    <contour>
      <point x="211" y="0" type="line"/>
      <point x="378" y="0" type="line"/>
      <point x="378" y="706" type="line"/>
      <point x="817" y="706" type="line"/>
      <point x="817" y="0" type="line"/>
      <point x="984" y="0" type="line"/>
      <point x="984" y="706" type="line"/>
      <point x="1181" y="706" type="line"/>
      <point x="1181" y="838" type="line"/>
      <point x="982" y="838" type="line"/>
      <point x="982" y="904" type="line" smooth="yes"/>
      <point x="982" y="1042"/>
      <point x="1047" y="1082"/>
      <point x="1126" y="1082" type="curve" smooth="yes"/>
      <point x="1175" y="1082"/>
      <point x="1218" y="1066"/>
      <point x="1253" y="1056" type="curve"/>
      <point x="1253" y="1195" type="line"/>
      <point x="1213" y="1207"/>
      <point x="1157" y="1224"/>
      <point x="1098" y="1224" type="curve" smooth="yes"/>
      <point x="909" y="1224"/>
      <point x="814" y="1100"/>
      <point x="814" y="904" type="curve" smooth="yes"/>
      <point x="814" y="838" type="line"/>
      <point x="376" y="838" type="line"/>
      <point x="376" y="904" type="line" smooth="yes"/>
      <point x="376" y="1042"/>
      <point x="441" y="1082"/>
      <point x="521" y="1082" type="curve" smooth="yes"/>
      <point x="569" y="1082"/>
      <point x="610" y="1066"/>
      <point x="645" y="1056" type="curve"/>
      <point x="645" y="1195" type="line"/>
      <point x="605" y="1207"/>
      <point x="552" y="1224"/>
      <point x="492" y="1224" type="curve" smooth="yes"/>
      <point x="303" y="1224"/>
      <point x="208" y="1100"/>
      <point x="208" y="904" type="curve" smooth="yes"/>
      <point x="208" y="838" type="line"/>
      <point x="85" y="838" type="line"/>
      <point x="85" y="706" type="line"/>
      <point x="211" y="706" type="line"/>
    </contour>
  </outline>
</glyph>
<glyph name="uniFB03" format="1">
  <advance width="1730"/>
  <outline>
    <contour>
      <point x="1471" y="1039" type="curve" smooth="yes"/>
      <point x="1541" y="1039"/>
      <point x="1580" y="1093"/>
      <point x="1580" y="1148" type="curve" smooth="yes"/>
      <point x="1580" y="1200"/>
      <point x="1541" y="1256"/>
      <point x="1471" y="1256" type="curve" smooth="yes"/>
      <point x="1399" y="1256"/>
      <point x="1360" y="1201"/>
      <point x="1360" y="1148" type="curve" smooth="yes"/>
      <point x="1360" y="1093"/>
      <point x="1400" y="1039"/>
    </contour>
    <contour>
      <point x="378" y="706" type="line"/>
      <point x="806" y="706" type="line"/>
      <point x="806" y="0" type="line"/>
      <point x="973" y="0" type="line"/>
      <point x="973" y="706" type="line"/>
      <point x="1389" y="706" type="line"/>
      <point x="1389" y="0" type="line"/>
      <point x="1555" y="0" type="line"/>
      <point x="1555" y="838" type="line"/>
      <point x="971" y="838" type="line"/>
      <point x="971" y="904" type="line" smooth="yes"/>
      <point x="971" y="1042"/>
      <point x="1036" y="1082"/>
      <point x="1116" y="1082" type="curve" smooth="yes"/>
      <point x="1164" y="1082"/>
      <point x="1207" y="1066"/>
      <point x="1242" y="1056" type="curve"/>
      <point x="1242" y="1195" type="line"/>
      <point x="1202" y="1207"/>
      <point x="1146" y="1224"/>
      <point x="1087" y="1224" type="curve" smooth="yes"/>
      <point x="898" y="1224"/>
      <point x="803" y="1100"/>
      <point x="803" y="904" type="curve" smooth="yes"/>
      <point x="803" y="838" type="line"/>
      <point x="376" y="838" type="line"/>
      <point x="376" y="904" type="line" smooth="yes"/>
      <point x="376" y="1042"/>
      <point x="441" y="1082"/>
      <point x="521" y="1082" type="curve" smooth="yes"/>
      <point x="569" y="1082"/>
      <point x="610" y="1066"/>
      <point x="645" y="1056" type="curve"/>
      <point x="645" y="1195" type="line"/>
      <point x="605" y="1207"/>
      <point x="552" y="1224"/>
      <point x="492" y="1224" type="curve" smooth="yes"/>
      <point x="303" y="1224"/>
      <point x="208" y="1100"/>
      <point x="208" y="904" type="curve" smooth="yes"/>
      <point x="208" y="838" type="line"/>
      <point x="85" y="838" type="line"/>
      <point x="85" y="706" type="line"/>
      <point x="211" y="706" type="line"/>
      <point x="211" y="0" type="line"/>
      <point x="378" y="0" type="line"/>
    </contour>
  </outline>
</glyph>
